<?xml version="1.0" encoding="utf-8" standalone="no"?>
<!DOCTYPE svg PUBLIC "-//W3C//DTD SVG 1.1//EN"
  "http://www.w3.org/Graphics/SVG/1.1/DTD/svg11.dtd">
<svg xmlns:xlink="http://www.w3.org/1999/xlink" width="2238.433253pt" height="424.123724pt" viewBox="0 0 2238.433253 424.123724" xmlns="http://www.w3.org/2000/svg" version="1.1">
 <metadata>
  <rdf:RDF xmlns:dc="http://purl.org/dc/elements/1.1/" xmlns:cc="http://creativecommons.org/ns#" xmlns:rdf="http://www.w3.org/1999/02/22-rdf-syntax-ns#">
   <cc:Work>
    <dc:type rdf:resource="http://purl.org/dc/dcmitype/StillImage"/>
    <dc:date>2026-03-25T16:43:51.678859</dc:date>
    <dc:format>image/svg+xml</dc:format>
    <dc:creator>
     <cc:Agent>
      <dc:title>Matplotlib v3.10.8, https://matplotlib.org/</dc:title>
     </cc:Agent>
    </dc:creator>
   </cc:Work>
  </rdf:RDF>
 </metadata>
 <defs>
  <style type="text/css">*{stroke-linejoin: round; stroke-linecap: butt}</style>
 </defs>
 <g id="figure_1">
  <g id="patch_1">
   <path d="M 0 424.123724 
L 2238.433253 424.123724 
L 2238.433253 0 
L 0 0 
z
" style="fill: #ffffff"/>
  </g>
  <g id="axes_1">
   <g id="patch_2">
    <path d="M 46.445938 303.395988 
L 2231.233253 303.395988 
L 2231.233253 23.837812 
L 46.445938 23.837812 
z
" style="fill: #fafafa"/>
   </g>
   <g id="patch_3">
    <path d="M 145.754452 125657.236192 
L 165.037658 125657.236192 
L 165.037658 223.998012 
L 145.754452 223.998012 
z
" clip-path="url(#p6e40a00d58)" style="fill: #3498db; opacity: 0.85"/>
   </g>
   <g id="patch_4">
    <path d="M 222.887278 125657.236192 
L 242.170485 125657.236192 
L 242.170485 198.671637 
L 222.887278 198.671637 
z
" clip-path="url(#p6e40a00d58)" style="fill: #3498db; opacity: 0.85"/>
   </g>
   <g id="patch_5">
    <path d="M 300.020105 125657.236192 
L 319.303312 125657.236192 
L 319.303312 76.249769 
L 300.020105 76.249769 
z
" clip-path="url(#p6e40a00d58)" style="fill: #3498db; opacity: 0.85"/>
   </g>
   <g id="patch_6">
    <path d="M 377.152932 125657.236192 
L 396.436138 125657.236192 
L 396.436138 112.33556 
L 377.152932 112.33556 
z
" clip-path="url(#p6e40a00d58)" style="fill: #3498db; opacity: 0.85"/>
   </g>
   <g id="patch_7">
    <path d="M 454.285758 125657.236192 
L 473.568965 125657.236192 
L 473.568965 134.825274 
L 454.285758 134.825274 
z
" clip-path="url(#p6e40a00d58)" style="fill: #3498db; opacity: 0.85"/>
   </g>
   <g id="patch_8">
    <path d="M 531.418585 125657.236192 
L 550.701792 125657.236192 
L 550.701792 112.494866 
L 531.418585 112.494866 
z
" clip-path="url(#p6e40a00d58)" style="fill: #3498db; opacity: 0.85"/>
   </g>
   <g id="patch_9">
    <path d="M 608.551412 125657.236192 
L 627.834618 125657.236192 
L 627.834618 251.088794 
L 608.551412 251.088794 
z
" clip-path="url(#p6e40a00d58)" style="fill: #3498db; opacity: 0.85"/>
   </g>
   <g id="patch_10">
    <path d="M 685.684238 125657.236192 
L 704.967445 125657.236192 
L 704.967445 120.030956 
L 685.684238 120.030956 
z
" clip-path="url(#p6e40a00d58)" style="fill: #3498db; opacity: 0.85"/>
   </g>
   <g id="patch_11">
    <path d="M 762.817065 125657.236192 
L 782.100272 125657.236192 
L 782.100272 179.143822 
L 762.817065 179.143822 
z
" clip-path="url(#p6e40a00d58)" style="fill: #3498db; opacity: 0.85"/>
   </g>
   <g id="patch_12">
    <path d="M 839.949892 125657.236192 
L 859.233098 125657.236192 
L 859.233098 212.550214 
L 839.949892 212.550214 
z
" clip-path="url(#p6e40a00d58)" style="fill: #3498db; opacity: 0.85"/>
   </g>
   <g id="patch_13">
    <path d="M 917.082718 125657.236192 
L 936.365925 125657.236192 
L 936.365925 287.248612 
L 917.082718 287.248612 
z
" clip-path="url(#p6e40a00d58)" style="fill: #3498db; opacity: 0.85"/>
   </g>
   <g id="patch_14">
    <path d="M 994.215545 125657.236192 
L 1013.498752 125657.236192 
L 1013.498752 263.756637 
L 994.215545 263.756637 
z
" clip-path="url(#p6e40a00d58)" style="fill: #3498db; opacity: 0.85"/>
   </g>
   <g id="patch_15">
    <path d="M 1071.348372 125657.236192 
L 1090.631578 125657.236192 
L 1090.631578 262.687073 
L 1071.348372 262.687073 
z
" clip-path="url(#p6e40a00d58)" style="fill: #3498db; opacity: 0.85"/>
   </g>
   <g id="patch_16">
    <path d="M 1148.481198 125657.236192 
L 1167.764405 125657.236192 
L 1167.764405 249.675463 
L 1148.481198 249.675463 
z
" clip-path="url(#p6e40a00d58)" style="fill: #3498db; opacity: 0.85"/>
   </g>
   <g id="patch_17">
    <path d="M 1225.614025 125657.236192 
L 1244.897232 125657.236192 
L 1244.897232 258.65491 
L 1225.614025 258.65491 
z
" clip-path="url(#p6e40a00d58)" style="fill: #3498db; opacity: 0.85"/>
   </g>
   <g id="patch_18">
    <path d="M 1302.746852 125657.236192 
L 1322.030058 125657.236192 
L 1322.030058 251.77525 
L 1302.746852 251.77525 
z
" clip-path="url(#p6e40a00d58)" style="fill: #3498db; opacity: 0.85"/>
   </g>
   <g id="patch_19">
    <path d="M 1379.879678 125657.236192 
L 1399.162885 125657.236192 
L 1399.162885 235.308859 
L 1379.879678 235.308859 
z
" clip-path="url(#p6e40a00d58)" style="fill: #3498db; opacity: 0.85"/>
   </g>
   <g id="patch_20">
    <path d="M 1457.012505 125657.236192 
L 1476.295712 125657.236192 
L 1476.295712 218.076208 
L 1457.012505 218.076208 
z
" clip-path="url(#p6e40a00d58)" style="fill: #3498db; opacity: 0.85"/>
   </g>
   <g id="patch_21">
    <path d="M 1534.145332 125657.236192 
L 1553.428538 125657.236192 
L 1553.428538 290.688798 
L 1534.145332 290.688798 
z
" clip-path="url(#p6e40a00d58)" style="fill: #3498db; opacity: 0.85"/>
   </g>
   <g id="patch_22">
    <path d="M 1611.278158 125657.236192 
L 1630.561365 125657.236192 
L 1630.561365 162.291736 
L 1611.278158 162.291736 
z
" clip-path="url(#p6e40a00d58)" style="fill: #3498db; opacity: 0.85"/>
   </g>
   <g id="patch_23">
    <path d="M 1688.410985 125657.236192 
L 1707.694192 125657.236192 
L 1707.694192 270.782664 
L 1688.410985 270.782664 
z
" clip-path="url(#p6e40a00d58)" style="fill: #3498db; opacity: 0.85"/>
   </g>
   <g id="patch_24">
    <path d="M 1765.543812 125657.236192 
L 1784.827018 125657.236192 
L 1784.827018 267.964864 
L 1765.543812 267.964864 
z
" clip-path="url(#p6e40a00d58)" style="fill: #3498db; opacity: 0.85"/>
   </g>
   <g id="patch_25">
    <path d="M 1842.676638 125657.236192 
L 1861.959845 125657.236192 
L 1861.959845 87.913574 
L 1842.676638 87.913574 
z
" clip-path="url(#p6e40a00d58)" style="fill: #3498db; opacity: 0.85"/>
   </g>
   <g id="patch_26">
    <path d="M 1919.809465 125657.236192 
L 1939.092672 125657.236192 
L 1939.092672 220.862709 
L 1919.809465 220.862709 
z
" clip-path="url(#p6e40a00d58)" style="fill: #3498db; opacity: 0.85"/>
   </g>
   <g id="patch_27">
    <path d="M 1996.942292 125657.236192 
L 2016.225498 125657.236192 
L 2016.225498 282.167884 
L 1996.942292 282.167884 
z
" clip-path="url(#p6e40a00d58)" style="fill: #3498db; opacity: 0.85"/>
   </g>
   <g id="patch_28">
    <path d="M 2074.075118 125657.236192 
L 2093.358325 125657.236192 
L 2093.358325 281.952162 
L 2074.075118 281.952162 
z
" clip-path="url(#p6e40a00d58)" style="fill: #3498db; opacity: 0.85"/>
   </g>
   <g id="patch_29">
    <path d="M 165.037658 125657.236192 
L 184.320865 125657.236192 
L 184.320865 42.294631 
L 165.037658 42.294631 
z
" clip-path="url(#p6e40a00d58)" style="fill: #e74c3c; opacity: 0.85"/>
   </g>
   <g id="patch_30">
    <path d="M 242.170485 125657.236192 
L 261.453692 125657.236192 
L 261.453692 81.405825 
L 242.170485 81.405825 
z
" clip-path="url(#p6e40a00d58)" style="fill: #e74c3c; opacity: 0.85"/>
   </g>
   <g id="patch_31">
    <path d="M 319.303312 125657.236192 
L 338.586518 125657.236192 
L 338.586518 54.142232 
L 319.303312 54.142232 
z
" clip-path="url(#p6e40a00d58)" style="fill: #e74c3c; opacity: 0.85"/>
   </g>
   <g id="patch_32">
    <path d="M 396.436138 125657.236192 
L 415.719345 125657.236192 
L 415.719345 59.096681 
L 396.436138 59.096681 
z
" clip-path="url(#p6e40a00d58)" style="fill: #e74c3c; opacity: 0.85"/>
   </g>
   <g id="patch_33">
    <path d="M 473.568965 125657.236192 
L 492.852172 125657.236192 
L 492.852172 42.890848 
L 473.568965 42.890848 
z
" clip-path="url(#p6e40a00d58)" style="fill: #e74c3c; opacity: 0.85"/>
   </g>
   <g id="patch_34">
    <path d="M 550.701792 125657.236192 
L 569.984998 125657.236192 
L 569.984998 59.446231 
L 550.701792 59.446231 
z
" clip-path="url(#p6e40a00d58)" style="fill: #e74c3c; opacity: 0.85"/>
   </g>
   <g id="patch_35">
    <path d="M 627.834618 125657.236192 
L 647.117825 125657.236192 
L 647.117825 86.194178 
L 627.834618 86.194178 
z
" clip-path="url(#p6e40a00d58)" style="fill: #e74c3c; opacity: 0.85"/>
   </g>
   <g id="patch_36">
    <path d="M 704.967445 125657.236192 
L 724.250652 125657.236192 
L 724.250652 39.650766 
L 704.967445 39.650766 
z
" clip-path="url(#p6e40a00d58)" style="fill: #e74c3c; opacity: 0.85"/>
   </g>
   <g id="patch_37">
    <path d="M 782.100272 125657.236192 
L 801.383478 125657.236192 
L 801.383478 41.277017 
L 782.100272 41.277017 
z
" clip-path="url(#p6e40a00d58)" style="fill: #e74c3c; opacity: 0.85"/>
   </g>
   <g id="patch_38">
    <path d="M 859.233098 125657.236192 
L 878.516305 125657.236192 
L 878.516305 50.633304 
L 859.233098 50.633304 
z
" clip-path="url(#p6e40a00d58)" style="fill: #e74c3c; opacity: 0.85"/>
   </g>
   <g id="patch_39">
    <path d="M 936.365925 125657.236192 
L 955.649132 125657.236192 
L 955.649132 54.449336 
L 936.365925 54.449336 
z
" clip-path="url(#p6e40a00d58)" style="fill: #e74c3c; opacity: 0.85"/>
   </g>
   <g id="patch_40">
    <path d="M 1013.498752 125657.236192 
L 1032.781958 125657.236192 
L 1032.781958 79.670943 
L 1013.498752 79.670943 
z
" clip-path="url(#p6e40a00d58)" style="fill: #e74c3c; opacity: 0.85"/>
   </g>
   <g id="patch_41">
    <path d="M 1090.631578 125657.236192 
L 1109.914785 125657.236192 
L 1109.914785 79.432756 
L 1090.631578 79.432756 
z
" clip-path="url(#p6e40a00d58)" style="fill: #e74c3c; opacity: 0.85"/>
   </g>
   <g id="patch_42">
    <path d="M 1167.764405 125657.236192 
L 1187.047612 125657.236192 
L 1187.047612 48.286374 
L 1167.764405 48.286374 
z
" clip-path="url(#p6e40a00d58)" style="fill: #e74c3c; opacity: 0.85"/>
   </g>
   <g id="patch_43">
    <path d="M 1244.897232 125657.236192 
L 1264.180438 125657.236192 
L 1264.180438 94.861854 
L 1244.897232 94.861854 
z
" clip-path="url(#p6e40a00d58)" style="fill: #e74c3c; opacity: 0.85"/>
   </g>
   <g id="patch_44">
    <path d="M 1322.030058 125657.236192 
L 1341.313265 125657.236192 
L 1341.313265 111.51732 
L 1322.030058 111.51732 
z
" clip-path="url(#p6e40a00d58)" style="fill: #e74c3c; opacity: 0.85"/>
   </g>
   <g id="patch_45">
    <path d="M 1399.162885 125657.236192 
L 1418.446092 125657.236192 
L 1418.446092 68.56281 
L 1399.162885 68.56281 
z
" clip-path="url(#p6e40a00d58)" style="fill: #e74c3c; opacity: 0.85"/>
   </g>
   <g id="patch_46">
    <path d="M 1476.295712 125657.236192 
L 1495.578918 125657.236192 
L 1495.578918 79.606692 
L 1476.295712 79.606692 
z
" clip-path="url(#p6e40a00d58)" style="fill: #e74c3c; opacity: 0.85"/>
   </g>
   <g id="patch_47">
    <path d="M 1553.428538 125657.236192 
L 1572.711745 125657.236192 
L 1572.711745 53.77597 
L 1553.428538 53.77597 
z
" clip-path="url(#p6e40a00d58)" style="fill: #e74c3c; opacity: 0.85"/>
   </g>
   <g id="patch_48">
    <path d="M 1630.561365 125657.236192 
L 1649.844572 125657.236192 
L 1649.844572 46.445446 
L 1630.561365 46.445446 
z
" clip-path="url(#p6e40a00d58)" style="fill: #e74c3c; opacity: 0.85"/>
   </g>
   <g id="patch_49">
    <path d="M 1707.694192 125657.236192 
L 1726.977398 125657.236192 
L 1726.977398 73.452576 
L 1707.694192 73.452576 
z
" clip-path="url(#p6e40a00d58)" style="fill: #e74c3c; opacity: 0.85"/>
   </g>
   <g id="patch_50">
    <path d="M 1784.827018 125657.236192 
L 1804.110225 125657.236192 
L 1804.110225 79.150761 
L 1784.827018 79.150761 
z
" clip-path="url(#p6e40a00d58)" style="fill: #e74c3c; opacity: 0.85"/>
   </g>
   <g id="patch_51">
    <path d="M 1861.959845 125657.236192 
L 1881.243052 125657.236192 
L 1881.243052 43.057757 
L 1861.959845 43.057757 
z
" clip-path="url(#p6e40a00d58)" style="fill: #e74c3c; opacity: 0.85"/>
   </g>
   <g id="patch_52">
    <path d="M 1939.092672 125657.236192 
L 1958.375878 125657.236192 
L 1958.375878 61.935865 
L 1939.092672 61.935865 
z
" clip-path="url(#p6e40a00d58)" style="fill: #e74c3c; opacity: 0.85"/>
   </g>
   <g id="patch_53">
    <path d="M 2016.225498 125657.236192 
L 2035.508705 125657.236192 
L 2035.508705 53.469414 
L 2016.225498 53.469414 
z
" clip-path="url(#p6e40a00d58)" style="fill: #e74c3c; opacity: 0.85"/>
   </g>
   <g id="patch_54">
    <path d="M 2093.358325 125657.236192 
L 2112.641532 125657.236192 
L 2112.641532 54.238269 
L 2093.358325 54.238269 
z
" clip-path="url(#p6e40a00d58)" style="fill: #e74c3c; opacity: 0.85"/>
   </g>
   <g id="patch_55">
    <path d="M 184.320865 125657.236192 
L 203.604072 125657.236192 
L 203.604072 170.225003 
L 184.320865 170.225003 
z
" clip-path="url(#p6e40a00d58)" style="fill: #2ecc71; opacity: 0.85"/>
   </g>
   <g id="patch_56">
    <path d="M 261.453692 125657.236192 
L 280.736898 125657.236192 
L 280.736898 160.738798 
L 261.453692 160.738798 
z
" clip-path="url(#p6e40a00d58)" style="fill: #2ecc71; opacity: 0.85"/>
   </g>
   <g id="patch_57">
    <path d="M 338.586518 125657.236192 
L 357.869725 125657.236192 
L 357.869725 36.545002 
L 338.586518 36.545002 
z
" clip-path="url(#p6e40a00d58)" style="fill: #2ecc71; opacity: 0.85"/>
   </g>
   <g id="patch_58">
    <path d="M 415.719345 125657.236192 
L 435.002552 125657.236192 
L 435.002552 71.31174 
L 415.719345 71.31174 
z
" clip-path="url(#p6e40a00d58)" style="fill: #2ecc71; opacity: 0.85"/>
   </g>
   <g id="patch_59">
    <path d="M 492.852172 125657.236192 
L 512.135378 125657.236192 
L 512.135378 91.952877 
L 492.852172 91.952877 
z
" clip-path="url(#p6e40a00d58)" style="fill: #2ecc71; opacity: 0.85"/>
   </g>
   <g id="patch_60">
    <path d="M 569.984998 125657.236192 
L 589.268205 125657.236192 
L 589.268205 71.79155 
L 569.984998 71.79155 
z
" clip-path="url(#p6e40a00d58)" style="fill: #2ecc71; opacity: 0.85"/>
   </g>
   <g id="patch_61">
    <path d="M 647.117825 125657.236192 
L 666.401032 125657.236192 
L 666.401032 249.204081 
L 647.117825 249.204081 
z
" clip-path="url(#p6e40a00d58)" style="fill: #2ecc71; opacity: 0.85"/>
   </g>
   <g id="patch_62">
    <path d="M 724.250652 125657.236192 
L 743.533858 125657.236192 
L 743.533858 78.702054 
L 724.250652 78.702054 
z
" clip-path="url(#p6e40a00d58)" style="fill: #2ecc71; opacity: 0.85"/>
   </g>
   <g id="patch_63">
    <path d="M 801.383478 125657.236192 
L 820.666685 125657.236192 
L 820.666685 133.03695 
L 801.383478 133.03695 
z
" clip-path="url(#p6e40a00d58)" style="fill: #2ecc71; opacity: 0.85"/>
   </g>
   <g id="patch_64">
    <path d="M 878.516305 125657.236192 
L 897.799512 125657.236192 
L 897.799512 161.768655 
L 878.516305 161.768655 
z
" clip-path="url(#p6e40a00d58)" style="fill: #2ecc71; opacity: 0.85"/>
   </g>
   <g id="patch_65">
    <path d="M 955.649132 125657.236192 
L 974.932338 125657.236192 
L 974.932338 190.879398 
L 955.649132 190.879398 
z
" clip-path="url(#p6e40a00d58)" style="fill: #2ecc71; opacity: 0.85"/>
   </g>
   <g id="patch_66">
    <path d="M 1032.781958 125657.236192 
L 1052.065165 125657.236192 
L 1052.065165 205.264047 
L 1032.781958 205.264047 
z
" clip-path="url(#p6e40a00d58)" style="fill: #2ecc71; opacity: 0.85"/>
   </g>
   <g id="patch_67">
    <path d="M 1109.914785 125657.236192 
L 1129.197992 125657.236192 
L 1129.197992 208.633771 
L 1109.914785 208.633771 
z
" clip-path="url(#p6e40a00d58)" style="fill: #2ecc71; opacity: 0.85"/>
   </g>
   <g id="patch_68">
    <path d="M 1187.047612 125657.236192 
L 1206.330818 125657.236192 
L 1206.330818 180.991061 
L 1187.047612 180.991061 
z
" clip-path="url(#p6e40a00d58)" style="fill: #2ecc71; opacity: 0.85"/>
   </g>
   <g id="patch_69">
    <path d="M 1264.180438 125657.236192 
L 1283.463645 125657.236192 
L 1283.463645 258.537659 
L 1264.180438 258.537659 
z
" clip-path="url(#p6e40a00d58)" style="fill: #2ecc71; opacity: 0.85"/>
   </g>
   <g id="patch_70">
    <path d="M 1341.313265 125657.236192 
L 1360.596472 125657.236192 
L 1360.596472 190.393074 
L 1341.313265 190.393074 
z
" clip-path="url(#p6e40a00d58)" style="fill: #2ecc71; opacity: 0.85"/>
   </g>
   <g id="patch_71">
    <path d="M 1418.446092 125657.236192 
L 1437.729298 125657.236192 
L 1437.729298 174.240024 
L 1418.446092 174.240024 
z
" clip-path="url(#p6e40a00d58)" style="fill: #2ecc71; opacity: 0.85"/>
   </g>
   <g id="patch_72">
    <path d="M 1495.578918 125657.236192 
L 1514.862125 125657.236192 
L 1514.862125 168.034628 
L 1495.578918 168.034628 
z
" clip-path="url(#p6e40a00d58)" style="fill: #2ecc71; opacity: 0.85"/>
   </g>
   <g id="patch_73">
    <path d="M 1572.711745 125657.236192 
L 1591.994952 125657.236192 
L 1591.994952 193.15998 
L 1572.711745 193.15998 
z
" clip-path="url(#p6e40a00d58)" style="fill: #2ecc71; opacity: 0.85"/>
   </g>
   <g id="patch_74">
    <path d="M 1649.844572 125657.236192 
L 1669.127778 125657.236192 
L 1669.127778 119.243955 
L 1649.844572 119.243955 
z
" clip-path="url(#p6e40a00d58)" style="fill: #2ecc71; opacity: 0.85"/>
   </g>
   <g id="patch_75">
    <path d="M 1726.977398 125657.236192 
L 1746.260605 125657.236192 
L 1746.260605 201.453314 
L 1726.977398 201.453314 
z
" clip-path="url(#p6e40a00d58)" style="fill: #2ecc71; opacity: 0.85"/>
   </g>
   <g id="patch_76">
    <path d="M 1804.110225 125657.236192 
L 1823.393432 125657.236192 
L 1823.393432 199.479757 
L 1804.110225 199.479757 
z
" clip-path="url(#p6e40a00d58)" style="fill: #2ecc71; opacity: 0.85"/>
   </g>
   <g id="patch_77">
    <path d="M 1881.243052 125657.236192 
L 1900.526258 125657.236192 
L 1900.526258 48.017762 
L 1881.243052 48.017762 
z
" clip-path="url(#p6e40a00d58)" style="fill: #2ecc71; opacity: 0.85"/>
   </g>
   <g id="patch_78">
    <path d="M 1958.375878 125657.236192 
L 1977.659085 125657.236192 
L 1977.659085 169.971816 
L 1958.375878 169.971816 
z
" clip-path="url(#p6e40a00d58)" style="fill: #2ecc71; opacity: 0.85"/>
   </g>
   <g id="patch_79">
    <path d="M 2035.508705 125657.236192 
L 2054.791912 125657.236192 
L 2054.791912 189.84522 
L 2035.508705 189.84522 
z
" clip-path="url(#p6e40a00d58)" style="fill: #2ecc71; opacity: 0.85"/>
   </g>
   <g id="patch_80">
    <path d="M 2112.641532 125657.236192 
L 2131.924738 125657.236192 
L 2131.924738 189.214852 
L 2112.641532 189.214852 
z
" clip-path="url(#p6e40a00d58)" style="fill: #2ecc71; opacity: 0.85"/>
   </g>
   <g id="matplotlib.axis_1">
    <g id="xtick_1">
     <g id="line2d_1">
      <path d="M 174.679262 303.395988 
L 174.679262 23.837812 
" clip-path="url(#p6e40a00d58)" style="fill: none; stroke: #b0b0b0; stroke-opacity: 0.3; stroke-width: 0.8; stroke-linecap: square"/>
     </g>
     <g id="line2d_2">
      <defs>
       <path id="mb610ad162c" d="M 0 0 
L 0 3.5 
" style="stroke: #000000; stroke-width: 0.8"/>
      </defs>
      <g>
       <use xlink:href="#mb610ad162c" x="174.679262" y="303.395988" style="stroke: #000000; stroke-width: 0.8"/>
      </g>
     </g>
     <g id="text_1">
      <!-- barabasi_albert -->
      <g transform="translate(123.782489 364.627874) rotate(-45) scale(0.09 -0.09)">
       <defs>
        <path id="DejaVuSans-62" d="M 3116 1747 
Q 3116 2381 2855 2742 
Q 2594 3103 2138 3103 
Q 1681 3103 1420 2742 
Q 1159 2381 1159 1747 
Q 1159 1113 1420 752 
Q 1681 391 2138 391 
Q 2594 391 2855 752 
Q 3116 1113 3116 1747 
z
M 1159 2969 
Q 1341 3281 1617 3432 
Q 1894 3584 2278 3584 
Q 2916 3584 3314 3078 
Q 3713 2572 3713 1747 
Q 3713 922 3314 415 
Q 2916 -91 2278 -91 
Q 1894 -91 1617 61 
Q 1341 213 1159 525 
L 1159 0 
L 581 0 
L 581 4863 
L 1159 4863 
L 1159 2969 
z
" transform="scale(0.015625)"/>
        <path id="DejaVuSans-61" d="M 2194 1759 
Q 1497 1759 1228 1600 
Q 959 1441 959 1056 
Q 959 750 1161 570 
Q 1363 391 1709 391 
Q 2188 391 2477 730 
Q 2766 1069 2766 1631 
L 2766 1759 
L 2194 1759 
z
M 3341 1997 
L 3341 0 
L 2766 0 
L 2766 531 
Q 2569 213 2275 61 
Q 1981 -91 1556 -91 
Q 1019 -91 701 211 
Q 384 513 384 1019 
Q 384 1609 779 1909 
Q 1175 2209 1959 2209 
L 2766 2209 
L 2766 2266 
Q 2766 2663 2505 2880 
Q 2244 3097 1772 3097 
Q 1472 3097 1187 3025 
Q 903 2953 641 2809 
L 641 3341 
Q 956 3463 1253 3523 
Q 1550 3584 1831 3584 
Q 2591 3584 2966 3190 
Q 3341 2797 3341 1997 
z
" transform="scale(0.015625)"/>
        <path id="DejaVuSans-72" d="M 2631 2963 
Q 2534 3019 2420 3045 
Q 2306 3072 2169 3072 
Q 1681 3072 1420 2755 
Q 1159 2438 1159 1844 
L 1159 0 
L 581 0 
L 581 3500 
L 1159 3500 
L 1159 2956 
Q 1341 3275 1631 3429 
Q 1922 3584 2338 3584 
Q 2397 3584 2469 3576 
Q 2541 3569 2628 3553 
L 2631 2963 
z
" transform="scale(0.015625)"/>
        <path id="DejaVuSans-73" d="M 2834 3397 
L 2834 2853 
Q 2591 2978 2328 3040 
Q 2066 3103 1784 3103 
Q 1356 3103 1142 2972 
Q 928 2841 928 2578 
Q 928 2378 1081 2264 
Q 1234 2150 1697 2047 
L 1894 2003 
Q 2506 1872 2764 1633 
Q 3022 1394 3022 966 
Q 3022 478 2636 193 
Q 2250 -91 1575 -91 
Q 1294 -91 989 -36 
Q 684 19 347 128 
L 347 722 
Q 666 556 975 473 
Q 1284 391 1588 391 
Q 1994 391 2212 530 
Q 2431 669 2431 922 
Q 2431 1156 2273 1281 
Q 2116 1406 1581 1522 
L 1381 1569 
Q 847 1681 609 1914 
Q 372 2147 372 2553 
Q 372 3047 722 3315 
Q 1072 3584 1716 3584 
Q 2034 3584 2315 3537 
Q 2597 3491 2834 3397 
z
" transform="scale(0.015625)"/>
        <path id="DejaVuSans-69" d="M 603 3500 
L 1178 3500 
L 1178 0 
L 603 0 
L 603 3500 
z
M 603 4863 
L 1178 4863 
L 1178 4134 
L 603 4134 
L 603 4863 
z
" transform="scale(0.015625)"/>
        <path id="DejaVuSans-5f" d="M 3263 -1063 
L 3263 -1509 
L -63 -1509 
L -63 -1063 
L 3263 -1063 
z
" transform="scale(0.015625)"/>
        <path id="DejaVuSans-6c" d="M 603 4863 
L 1178 4863 
L 1178 0 
L 603 0 
L 603 4863 
z
" transform="scale(0.015625)"/>
        <path id="DejaVuSans-65" d="M 3597 1894 
L 3597 1613 
L 953 1613 
Q 991 1019 1311 708 
Q 1631 397 2203 397 
Q 2534 397 2845 478 
Q 3156 559 3463 722 
L 3463 178 
Q 3153 47 2828 -22 
Q 2503 -91 2169 -91 
Q 1331 -91 842 396 
Q 353 884 353 1716 
Q 353 2575 817 3079 
Q 1281 3584 2069 3584 
Q 2775 3584 3186 3129 
Q 3597 2675 3597 1894 
z
M 3022 2063 
Q 3016 2534 2758 2815 
Q 2500 3097 2075 3097 
Q 1594 3097 1305 2825 
Q 1016 2553 972 2059 
L 3022 2063 
z
" transform="scale(0.015625)"/>
        <path id="DejaVuSans-74" d="M 1172 4494 
L 1172 3500 
L 2356 3500 
L 2356 3053 
L 1172 3053 
L 1172 1153 
Q 1172 725 1289 603 
Q 1406 481 1766 481 
L 2356 481 
L 2356 0 
L 1766 0 
Q 1100 0 847 248 
Q 594 497 594 1153 
L 594 3053 
L 172 3053 
L 172 3500 
L 594 3500 
L 594 4494 
L 1172 4494 
z
" transform="scale(0.015625)"/>
       </defs>
       <use xlink:href="#DejaVuSans-62"/>
       <use xlink:href="#DejaVuSans-61" transform="translate(63.476562 0)"/>
       <use xlink:href="#DejaVuSans-72" transform="translate(124.755859 0)"/>
       <use xlink:href="#DejaVuSans-61" transform="translate(165.869141 0)"/>
       <use xlink:href="#DejaVuSans-62" transform="translate(227.148438 0)"/>
       <use xlink:href="#DejaVuSans-61" transform="translate(290.625 0)"/>
       <use xlink:href="#DejaVuSans-73" transform="translate(351.904297 0)"/>
       <use xlink:href="#DejaVuSans-69" transform="translate(404.003906 0)"/>
       <use xlink:href="#DejaVuSans-5f" transform="translate(431.787109 0)"/>
       <use xlink:href="#DejaVuSans-61" transform="translate(481.787109 0)"/>
       <use xlink:href="#DejaVuSans-6c" transform="translate(543.066406 0)"/>
       <use xlink:href="#DejaVuSans-62" transform="translate(570.849609 0)"/>
       <use xlink:href="#DejaVuSans-65" transform="translate(634.326172 0)"/>
       <use xlink:href="#DejaVuSans-72" transform="translate(695.849609 0)"/>
       <use xlink:href="#DejaVuSans-74" transform="translate(736.962891 0)"/>
      </g>
     </g>
    </g>
    <g id="xtick_2">
     <g id="line2d_3">
      <path d="M 251.812088 303.395988 
L 251.812088 23.837812 
" clip-path="url(#p6e40a00d58)" style="fill: none; stroke: #b0b0b0; stroke-opacity: 0.3; stroke-width: 0.8; stroke-linecap: square"/>
     </g>
     <g id="line2d_4">
      <g>
       <use xlink:href="#mb610ad162c" x="251.812088" y="303.395988" style="stroke: #000000; stroke-width: 0.8"/>
      </g>
     </g>
     <g id="text_2">
      <!-- barbell -->
      <g transform="translate(228.440442 337.279746) rotate(-45) scale(0.09 -0.09)">
       <use xlink:href="#DejaVuSans-62"/>
       <use xlink:href="#DejaVuSans-61" transform="translate(63.476562 0)"/>
       <use xlink:href="#DejaVuSans-72" transform="translate(124.755859 0)"/>
       <use xlink:href="#DejaVuSans-62" transform="translate(165.869141 0)"/>
       <use xlink:href="#DejaVuSans-65" transform="translate(229.345703 0)"/>
       <use xlink:href="#DejaVuSans-6c" transform="translate(290.869141 0)"/>
       <use xlink:href="#DejaVuSans-6c" transform="translate(318.652344 0)"/>
      </g>
     </g>
    </g>
    <g id="xtick_3">
     <g id="line2d_5">
      <path d="M 328.944915 303.395988 
L 328.944915 23.837812 
" clip-path="url(#p6e40a00d58)" style="fill: none; stroke: #b0b0b0; stroke-opacity: 0.3; stroke-width: 0.8; stroke-linecap: square"/>
     </g>
     <g id="line2d_6">
      <g>
       <use xlink:href="#mb610ad162c" x="328.944915" y="303.395988" style="stroke: #000000; stroke-width: 0.8"/>
      </g>
     </g>
     <g id="text_3">
      <!-- complete -->
      <g transform="translate(297.894752 344.958263) rotate(-45) scale(0.09 -0.09)">
       <defs>
        <path id="DejaVuSans-63" d="M 3122 3366 
L 3122 2828 
Q 2878 2963 2633 3030 
Q 2388 3097 2138 3097 
Q 1578 3097 1268 2742 
Q 959 2388 959 1747 
Q 959 1106 1268 751 
Q 1578 397 2138 397 
Q 2388 397 2633 464 
Q 2878 531 3122 666 
L 3122 134 
Q 2881 22 2623 -34 
Q 2366 -91 2075 -91 
Q 1284 -91 818 406 
Q 353 903 353 1747 
Q 353 2603 823 3093 
Q 1294 3584 2113 3584 
Q 2378 3584 2631 3529 
Q 2884 3475 3122 3366 
z
" transform="scale(0.015625)"/>
        <path id="DejaVuSans-6f" d="M 1959 3097 
Q 1497 3097 1228 2736 
Q 959 2375 959 1747 
Q 959 1119 1226 758 
Q 1494 397 1959 397 
Q 2419 397 2687 759 
Q 2956 1122 2956 1747 
Q 2956 2369 2687 2733 
Q 2419 3097 1959 3097 
z
M 1959 3584 
Q 2709 3584 3137 3096 
Q 3566 2609 3566 1747 
Q 3566 888 3137 398 
Q 2709 -91 1959 -91 
Q 1206 -91 779 398 
Q 353 888 353 1747 
Q 353 2609 779 3096 
Q 1206 3584 1959 3584 
z
" transform="scale(0.015625)"/>
        <path id="DejaVuSans-6d" d="M 3328 2828 
Q 3544 3216 3844 3400 
Q 4144 3584 4550 3584 
Q 5097 3584 5394 3201 
Q 5691 2819 5691 2113 
L 5691 0 
L 5113 0 
L 5113 2094 
Q 5113 2597 4934 2840 
Q 4756 3084 4391 3084 
Q 3944 3084 3684 2787 
Q 3425 2491 3425 1978 
L 3425 0 
L 2847 0 
L 2847 2094 
Q 2847 2600 2669 2842 
Q 2491 3084 2119 3084 
Q 1678 3084 1418 2786 
Q 1159 2488 1159 1978 
L 1159 0 
L 581 0 
L 581 3500 
L 1159 3500 
L 1159 2956 
Q 1356 3278 1631 3431 
Q 1906 3584 2284 3584 
Q 2666 3584 2933 3390 
Q 3200 3197 3328 2828 
z
" transform="scale(0.015625)"/>
        <path id="DejaVuSans-70" d="M 1159 525 
L 1159 -1331 
L 581 -1331 
L 581 3500 
L 1159 3500 
L 1159 2969 
Q 1341 3281 1617 3432 
Q 1894 3584 2278 3584 
Q 2916 3584 3314 3078 
Q 3713 2572 3713 1747 
Q 3713 922 3314 415 
Q 2916 -91 2278 -91 
Q 1894 -91 1617 61 
Q 1341 213 1159 525 
z
M 3116 1747 
Q 3116 2381 2855 2742 
Q 2594 3103 2138 3103 
Q 1681 3103 1420 2742 
Q 1159 2381 1159 1747 
Q 1159 1113 1420 752 
Q 1681 391 2138 391 
Q 2594 391 2855 752 
Q 3116 1113 3116 1747 
z
" transform="scale(0.015625)"/>
       </defs>
       <use xlink:href="#DejaVuSans-63"/>
       <use xlink:href="#DejaVuSans-6f" transform="translate(54.980469 0)"/>
       <use xlink:href="#DejaVuSans-6d" transform="translate(116.162109 0)"/>
       <use xlink:href="#DejaVuSans-70" transform="translate(213.574219 0)"/>
       <use xlink:href="#DejaVuSans-6c" transform="translate(277.050781 0)"/>
       <use xlink:href="#DejaVuSans-65" transform="translate(304.833984 0)"/>
       <use xlink:href="#DejaVuSans-74" transform="translate(366.357422 0)"/>
       <use xlink:href="#DejaVuSans-65" transform="translate(405.566406 0)"/>
      </g>
     </g>
    </g>
    <g id="xtick_4">
     <g id="line2d_7">
      <path d="M 406.077742 303.395988 
L 406.077742 23.837812 
" clip-path="url(#p6e40a00d58)" style="fill: none; stroke: #b0b0b0; stroke-opacity: 0.3; stroke-width: 0.8; stroke-linecap: square"/>
     </g>
     <g id="line2d_8">
      <g>
       <use xlink:href="#mb610ad162c" x="406.077742" y="303.395988" style="stroke: #000000; stroke-width: 0.8"/>
      </g>
     </g>
     <g id="text_4">
      <!-- complete_bipartite -->
      <g transform="translate(344.630715 375.178128) rotate(-45) scale(0.09 -0.09)">
       <use xlink:href="#DejaVuSans-63"/>
       <use xlink:href="#DejaVuSans-6f" transform="translate(54.980469 0)"/>
       <use xlink:href="#DejaVuSans-6d" transform="translate(116.162109 0)"/>
       <use xlink:href="#DejaVuSans-70" transform="translate(213.574219 0)"/>
       <use xlink:href="#DejaVuSans-6c" transform="translate(277.050781 0)"/>
       <use xlink:href="#DejaVuSans-65" transform="translate(304.833984 0)"/>
       <use xlink:href="#DejaVuSans-74" transform="translate(366.357422 0)"/>
       <use xlink:href="#DejaVuSans-65" transform="translate(405.566406 0)"/>
       <use xlink:href="#DejaVuSans-5f" transform="translate(467.089844 0)"/>
       <use xlink:href="#DejaVuSans-62" transform="translate(517.089844 0)"/>
       <use xlink:href="#DejaVuSans-69" transform="translate(580.566406 0)"/>
       <use xlink:href="#DejaVuSans-70" transform="translate(608.349609 0)"/>
       <use xlink:href="#DejaVuSans-61" transform="translate(671.826172 0)"/>
       <use xlink:href="#DejaVuSans-72" transform="translate(733.105469 0)"/>
       <use xlink:href="#DejaVuSans-74" transform="translate(774.21875 0)"/>
       <use xlink:href="#DejaVuSans-69" transform="translate(813.427734 0)"/>
       <use xlink:href="#DejaVuSans-74" transform="translate(841.210938 0)"/>
       <use xlink:href="#DejaVuSans-65" transform="translate(880.419922 0)"/>
      </g>
     </g>
    </g>
    <g id="xtick_5">
     <g id="line2d_9">
      <path d="M 483.210568 303.395988 
L 483.210568 23.837812 
" clip-path="url(#p6e40a00d58)" style="fill: none; stroke: #b0b0b0; stroke-opacity: 0.3; stroke-width: 0.8; stroke-linecap: square"/>
     </g>
     <g id="line2d_10">
      <g>
       <use xlink:href="#mb610ad162c" x="483.210568" y="303.395988" style="stroke: #000000; stroke-width: 0.8"/>
      </g>
     </g>
     <g id="text_5">
      <!-- complete_bipartite_imbalanced -->
      <g transform="translate(381.518449 415.423221) rotate(-45) scale(0.09 -0.09)">
       <defs>
        <path id="DejaVuSans-6e" d="M 3513 2113 
L 3513 0 
L 2938 0 
L 2938 2094 
Q 2938 2591 2744 2837 
Q 2550 3084 2163 3084 
Q 1697 3084 1428 2787 
Q 1159 2491 1159 1978 
L 1159 0 
L 581 0 
L 581 3500 
L 1159 3500 
L 1159 2956 
Q 1366 3272 1645 3428 
Q 1925 3584 2291 3584 
Q 2894 3584 3203 3211 
Q 3513 2838 3513 2113 
z
" transform="scale(0.015625)"/>
        <path id="DejaVuSans-64" d="M 2906 2969 
L 2906 4863 
L 3481 4863 
L 3481 0 
L 2906 0 
L 2906 525 
Q 2725 213 2448 61 
Q 2172 -91 1784 -91 
Q 1150 -91 751 415 
Q 353 922 353 1747 
Q 353 2572 751 3078 
Q 1150 3584 1784 3584 
Q 2172 3584 2448 3432 
Q 2725 3281 2906 2969 
z
M 947 1747 
Q 947 1113 1208 752 
Q 1469 391 1925 391 
Q 2381 391 2643 752 
Q 2906 1113 2906 1747 
Q 2906 2381 2643 2742 
Q 2381 3103 1925 3103 
Q 1469 3103 1208 2742 
Q 947 2381 947 1747 
z
" transform="scale(0.015625)"/>
       </defs>
       <use xlink:href="#DejaVuSans-63"/>
       <use xlink:href="#DejaVuSans-6f" transform="translate(54.980469 0)"/>
       <use xlink:href="#DejaVuSans-6d" transform="translate(116.162109 0)"/>
       <use xlink:href="#DejaVuSans-70" transform="translate(213.574219 0)"/>
       <use xlink:href="#DejaVuSans-6c" transform="translate(277.050781 0)"/>
       <use xlink:href="#DejaVuSans-65" transform="translate(304.833984 0)"/>
       <use xlink:href="#DejaVuSans-74" transform="translate(366.357422 0)"/>
       <use xlink:href="#DejaVuSans-65" transform="translate(405.566406 0)"/>
       <use xlink:href="#DejaVuSans-5f" transform="translate(467.089844 0)"/>
       <use xlink:href="#DejaVuSans-62" transform="translate(517.089844 0)"/>
       <use xlink:href="#DejaVuSans-69" transform="translate(580.566406 0)"/>
       <use xlink:href="#DejaVuSans-70" transform="translate(608.349609 0)"/>
       <use xlink:href="#DejaVuSans-61" transform="translate(671.826172 0)"/>
       <use xlink:href="#DejaVuSans-72" transform="translate(733.105469 0)"/>
       <use xlink:href="#DejaVuSans-74" transform="translate(774.21875 0)"/>
       <use xlink:href="#DejaVuSans-69" transform="translate(813.427734 0)"/>
       <use xlink:href="#DejaVuSans-74" transform="translate(841.210938 0)"/>
       <use xlink:href="#DejaVuSans-65" transform="translate(880.419922 0)"/>
       <use xlink:href="#DejaVuSans-5f" transform="translate(941.943359 0)"/>
       <use xlink:href="#DejaVuSans-69" transform="translate(991.943359 0)"/>
       <use xlink:href="#DejaVuSans-6d" transform="translate(1019.726562 0)"/>
       <use xlink:href="#DejaVuSans-62" transform="translate(1117.138672 0)"/>
       <use xlink:href="#DejaVuSans-61" transform="translate(1180.615234 0)"/>
       <use xlink:href="#DejaVuSans-6c" transform="translate(1241.894531 0)"/>
       <use xlink:href="#DejaVuSans-61" transform="translate(1269.677734 0)"/>
       <use xlink:href="#DejaVuSans-6e" transform="translate(1330.957031 0)"/>
       <use xlink:href="#DejaVuSans-63" transform="translate(1394.335938 0)"/>
       <use xlink:href="#DejaVuSans-65" transform="translate(1449.316406 0)"/>
       <use xlink:href="#DejaVuSans-64" transform="translate(1510.839844 0)"/>
      </g>
     </g>
    </g>
    <g id="xtick_6">
     <g id="line2d_11">
      <path d="M 560.343395 303.395988 
L 560.343395 23.837812 
" clip-path="url(#p6e40a00d58)" style="fill: none; stroke: #b0b0b0; stroke-opacity: 0.3; stroke-width: 0.8; stroke-linecap: square"/>
     </g>
     <g id="line2d_12">
      <g>
       <use xlink:href="#mb610ad162c" x="560.343395" y="303.395988" style="stroke: #000000; stroke-width: 0.8"/>
      </g>
     </g>
     <g id="text_6">
      <!-- crown -->
      <g transform="translate(539.916075 334.335419) rotate(-45) scale(0.09 -0.09)">
       <defs>
        <path id="DejaVuSans-77" d="M 269 3500 
L 844 3500 
L 1563 769 
L 2278 3500 
L 2956 3500 
L 3675 769 
L 4391 3500 
L 4966 3500 
L 4050 0 
L 3372 0 
L 2619 2869 
L 1863 0 
L 1184 0 
L 269 3500 
z
" transform="scale(0.015625)"/>
       </defs>
       <use xlink:href="#DejaVuSans-63"/>
       <use xlink:href="#DejaVuSans-72" transform="translate(54.980469 0)"/>
       <use xlink:href="#DejaVuSans-6f" transform="translate(93.84375 0)"/>
       <use xlink:href="#DejaVuSans-77" transform="translate(155.025391 0)"/>
       <use xlink:href="#DejaVuSans-6e" transform="translate(236.8125 0)"/>
      </g>
     </g>
    </g>
    <g id="xtick_7">
     <g id="line2d_13">
      <path d="M 637.476222 303.395988 
L 637.476222 23.837812 
" clip-path="url(#p6e40a00d58)" style="fill: none; stroke: #b0b0b0; stroke-opacity: 0.3; stroke-width: 0.8; stroke-linecap: square"/>
     </g>
     <g id="line2d_14">
      <g>
       <use xlink:href="#mb610ad162c" x="637.476222" y="303.395988" style="stroke: #000000; stroke-width: 0.8"/>
      </g>
     </g>
     <g id="text_7">
      <!-- cycle -->
      <g transform="translate(619.703866 331.680455) rotate(-45) scale(0.09 -0.09)">
       <defs>
        <path id="DejaVuSans-79" d="M 2059 -325 
Q 1816 -950 1584 -1140 
Q 1353 -1331 966 -1331 
L 506 -1331 
L 506 -850 
L 844 -850 
Q 1081 -850 1212 -737 
Q 1344 -625 1503 -206 
L 1606 56 
L 191 3500 
L 800 3500 
L 1894 763 
L 2988 3500 
L 3597 3500 
L 2059 -325 
z
" transform="scale(0.015625)"/>
       </defs>
       <use xlink:href="#DejaVuSans-63"/>
       <use xlink:href="#DejaVuSans-79" transform="translate(54.980469 0)"/>
       <use xlink:href="#DejaVuSans-63" transform="translate(114.160156 0)"/>
       <use xlink:href="#DejaVuSans-6c" transform="translate(169.140625 0)"/>
       <use xlink:href="#DejaVuSans-65" transform="translate(196.923828 0)"/>
      </g>
     </g>
    </g>
    <g id="xtick_8">
     <g id="line2d_15">
      <path d="M 714.609048 303.395988 
L 714.609048 23.837812 
" clip-path="url(#p6e40a00d58)" style="fill: none; stroke: #b0b0b0; stroke-opacity: 0.3; stroke-width: 0.8; stroke-linecap: square"/>
     </g>
     <g id="line2d_16">
      <g>
       <use xlink:href="#mb610ad162c" x="714.609048" y="303.395988" style="stroke: #000000; stroke-width: 0.8"/>
      </g>
     </g>
     <g id="text_8">
      <!-- er_dense -->
      <g transform="translate(684.174399 344.165751) rotate(-45) scale(0.09 -0.09)">
       <use xlink:href="#DejaVuSans-65"/>
       <use xlink:href="#DejaVuSans-72" transform="translate(61.523438 0)"/>
       <use xlink:href="#DejaVuSans-5f" transform="translate(102.636719 0)"/>
       <use xlink:href="#DejaVuSans-64" transform="translate(152.636719 0)"/>
       <use xlink:href="#DejaVuSans-65" transform="translate(216.113281 0)"/>
       <use xlink:href="#DejaVuSans-6e" transform="translate(277.636719 0)"/>
       <use xlink:href="#DejaVuSans-73" transform="translate(341.015625 0)"/>
       <use xlink:href="#DejaVuSans-65" transform="translate(393.115234 0)"/>
      </g>
     </g>
    </g>
    <g id="xtick_9">
     <g id="line2d_17">
      <path d="M 791.741875 303.395988 
L 791.741875 23.837812 
" clip-path="url(#p6e40a00d58)" style="fill: none; stroke: #b0b0b0; stroke-opacity: 0.3; stroke-width: 0.8; stroke-linecap: square"/>
     </g>
     <g id="line2d_18">
      <g>
       <use xlink:href="#mb610ad162c" x="791.741875" y="303.395988" style="stroke: #000000; stroke-width: 0.8"/>
      </g>
     </g>
     <g id="text_9">
      <!-- er_medium -->
      <g transform="translate(754.372497 351.100479) rotate(-45) scale(0.09 -0.09)">
       <defs>
        <path id="DejaVuSans-75" d="M 544 1381 
L 544 3500 
L 1119 3500 
L 1119 1403 
Q 1119 906 1312 657 
Q 1506 409 1894 409 
Q 2359 409 2629 706 
Q 2900 1003 2900 1516 
L 2900 3500 
L 3475 3500 
L 3475 0 
L 2900 0 
L 2900 538 
Q 2691 219 2414 64 
Q 2138 -91 1772 -91 
Q 1169 -91 856 284 
Q 544 659 544 1381 
z
M 1991 3584 
L 1991 3584 
z
" transform="scale(0.015625)"/>
       </defs>
       <use xlink:href="#DejaVuSans-65"/>
       <use xlink:href="#DejaVuSans-72" transform="translate(61.523438 0)"/>
       <use xlink:href="#DejaVuSans-5f" transform="translate(102.636719 0)"/>
       <use xlink:href="#DejaVuSans-6d" transform="translate(152.636719 0)"/>
       <use xlink:href="#DejaVuSans-65" transform="translate(250.048828 0)"/>
       <use xlink:href="#DejaVuSans-64" transform="translate(311.572266 0)"/>
       <use xlink:href="#DejaVuSans-69" transform="translate(375.048828 0)"/>
       <use xlink:href="#DejaVuSans-75" transform="translate(402.832031 0)"/>
       <use xlink:href="#DejaVuSans-6d" transform="translate(466.210938 0)"/>
      </g>
     </g>
    </g>
    <g id="xtick_10">
     <g id="line2d_19">
      <path d="M 868.874702 303.395988 
L 868.874702 23.837812 
" clip-path="url(#p6e40a00d58)" style="fill: none; stroke: #b0b0b0; stroke-opacity: 0.3; stroke-width: 0.8; stroke-linecap: square"/>
     </g>
     <g id="line2d_20">
      <g>
       <use xlink:href="#mb610ad162c" x="868.874702" y="303.395988" style="stroke: #000000; stroke-width: 0.8"/>
      </g>
     </g>
     <g id="text_10">
      <!-- er_sparse -->
      <g transform="translate(836.557712 345.871093) rotate(-45) scale(0.09 -0.09)">
       <use xlink:href="#DejaVuSans-65"/>
       <use xlink:href="#DejaVuSans-72" transform="translate(61.523438 0)"/>
       <use xlink:href="#DejaVuSans-5f" transform="translate(102.636719 0)"/>
       <use xlink:href="#DejaVuSans-73" transform="translate(152.636719 0)"/>
       <use xlink:href="#DejaVuSans-70" transform="translate(204.736328 0)"/>
       <use xlink:href="#DejaVuSans-61" transform="translate(268.212891 0)"/>
       <use xlink:href="#DejaVuSans-72" transform="translate(329.492188 0)"/>
       <use xlink:href="#DejaVuSans-73" transform="translate(370.605469 0)"/>
       <use xlink:href="#DejaVuSans-65" transform="translate(422.705078 0)"/>
      </g>
     </g>
    </g>
    <g id="xtick_11">
     <g id="line2d_21">
      <path d="M 946.007528 303.395988 
L 946.007528 23.837812 
" clip-path="url(#p6e40a00d58)" style="fill: none; stroke: #b0b0b0; stroke-opacity: 0.3; stroke-width: 0.8; stroke-linecap: square"/>
     </g>
     <g id="line2d_22">
      <g>
       <use xlink:href="#mb610ad162c" x="946.007528" y="303.395988" style="stroke: #000000; stroke-width: 0.8"/>
      </g>
     </g>
     <g id="text_11">
      <!-- friendship -->
      <g transform="translate(912.913937 347.001691) rotate(-45) scale(0.09 -0.09)">
       <defs>
        <path id="DejaVuSans-66" d="M 2375 4863 
L 2375 4384 
L 1825 4384 
Q 1516 4384 1395 4259 
Q 1275 4134 1275 3809 
L 1275 3500 
L 2222 3500 
L 2222 3053 
L 1275 3053 
L 1275 0 
L 697 0 
L 697 3053 
L 147 3053 
L 147 3500 
L 697 3500 
L 697 3744 
Q 697 4328 969 4595 
Q 1241 4863 1831 4863 
L 2375 4863 
z
" transform="scale(0.015625)"/>
        <path id="DejaVuSans-68" d="M 3513 2113 
L 3513 0 
L 2938 0 
L 2938 2094 
Q 2938 2591 2744 2837 
Q 2550 3084 2163 3084 
Q 1697 3084 1428 2787 
Q 1159 2491 1159 1978 
L 1159 0 
L 581 0 
L 581 4863 
L 1159 4863 
L 1159 2956 
Q 1366 3272 1645 3428 
Q 1925 3584 2291 3584 
Q 2894 3584 3203 3211 
Q 3513 2838 3513 2113 
z
" transform="scale(0.015625)"/>
       </defs>
       <use xlink:href="#DejaVuSans-66"/>
       <use xlink:href="#DejaVuSans-72" transform="translate(35.205078 0)"/>
       <use xlink:href="#DejaVuSans-69" transform="translate(76.318359 0)"/>
       <use xlink:href="#DejaVuSans-65" transform="translate(104.101562 0)"/>
       <use xlink:href="#DejaVuSans-6e" transform="translate(165.625 0)"/>
       <use xlink:href="#DejaVuSans-64" transform="translate(229.003906 0)"/>
       <use xlink:href="#DejaVuSans-73" transform="translate(292.480469 0)"/>
       <use xlink:href="#DejaVuSans-68" transform="translate(344.580078 0)"/>
       <use xlink:href="#DejaVuSans-69" transform="translate(407.958984 0)"/>
       <use xlink:href="#DejaVuSans-70" transform="translate(435.742188 0)"/>
      </g>
     </g>
    </g>
    <g id="xtick_12">
     <g id="line2d_23">
      <path d="M 1023.140355 303.395988 
L 1023.140355 23.837812 
" clip-path="url(#p6e40a00d58)" style="fill: none; stroke: #b0b0b0; stroke-opacity: 0.3; stroke-width: 0.8; stroke-linecap: square"/>
     </g>
     <g id="line2d_24">
      <g>
       <use xlink:href="#mb610ad162c" x="1023.140355" y="303.395988" style="stroke: #000000; stroke-width: 0.8"/>
      </g>
     </g>
     <g id="text_12">
      <!-- grid -->
      <g transform="translate(1009.352436 327.696018) rotate(-45) scale(0.09 -0.09)">
       <defs>
        <path id="DejaVuSans-67" d="M 2906 1791 
Q 2906 2416 2648 2759 
Q 2391 3103 1925 3103 
Q 1463 3103 1205 2759 
Q 947 2416 947 1791 
Q 947 1169 1205 825 
Q 1463 481 1925 481 
Q 2391 481 2648 825 
Q 2906 1169 2906 1791 
z
M 3481 434 
Q 3481 -459 3084 -895 
Q 2688 -1331 1869 -1331 
Q 1566 -1331 1297 -1286 
Q 1028 -1241 775 -1147 
L 775 -588 
Q 1028 -725 1275 -790 
Q 1522 -856 1778 -856 
Q 2344 -856 2625 -561 
Q 2906 -266 2906 331 
L 2906 616 
Q 2728 306 2450 153 
Q 2172 0 1784 0 
Q 1141 0 747 490 
Q 353 981 353 1791 
Q 353 2603 747 3093 
Q 1141 3584 1784 3584 
Q 2172 3584 2450 3431 
Q 2728 3278 2906 2969 
L 2906 3500 
L 3481 3500 
L 3481 434 
z
" transform="scale(0.015625)"/>
       </defs>
       <use xlink:href="#DejaVuSans-67"/>
       <use xlink:href="#DejaVuSans-72" transform="translate(63.476562 0)"/>
       <use xlink:href="#DejaVuSans-69" transform="translate(104.589844 0)"/>
       <use xlink:href="#DejaVuSans-64" transform="translate(132.373047 0)"/>
      </g>
     </g>
    </g>
    <g id="xtick_13">
     <g id="line2d_25">
      <path d="M 1100.273182 303.395988 
L 1100.273182 23.837812 
" clip-path="url(#p6e40a00d58)" style="fill: none; stroke: #b0b0b0; stroke-opacity: 0.3; stroke-width: 0.8; stroke-linecap: square"/>
     </g>
     <g id="line2d_26">
      <g>
       <use xlink:href="#mb610ad162c" x="1100.273182" y="303.395988" style="stroke: #000000; stroke-width: 0.8"/>
      </g>
     </g>
     <g id="text_13">
      <!-- hexagonal_lattice -->
      <g transform="translate(1042.610723 371.39356) rotate(-45) scale(0.09 -0.09)">
       <defs>
        <path id="DejaVuSans-78" d="M 3513 3500 
L 2247 1797 
L 3578 0 
L 2900 0 
L 1881 1375 
L 863 0 
L 184 0 
L 1544 1831 
L 300 3500 
L 978 3500 
L 1906 2253 
L 2834 3500 
L 3513 3500 
z
" transform="scale(0.015625)"/>
       </defs>
       <use xlink:href="#DejaVuSans-68"/>
       <use xlink:href="#DejaVuSans-65" transform="translate(63.378906 0)"/>
       <use xlink:href="#DejaVuSans-78" transform="translate(123.152344 0)"/>
       <use xlink:href="#DejaVuSans-61" transform="translate(182.332031 0)"/>
       <use xlink:href="#DejaVuSans-67" transform="translate(243.611328 0)"/>
       <use xlink:href="#DejaVuSans-6f" transform="translate(307.087891 0)"/>
       <use xlink:href="#DejaVuSans-6e" transform="translate(368.269531 0)"/>
       <use xlink:href="#DejaVuSans-61" transform="translate(431.648438 0)"/>
       <use xlink:href="#DejaVuSans-6c" transform="translate(492.927734 0)"/>
       <use xlink:href="#DejaVuSans-5f" transform="translate(520.710938 0)"/>
       <use xlink:href="#DejaVuSans-6c" transform="translate(570.710938 0)"/>
       <use xlink:href="#DejaVuSans-61" transform="translate(598.494141 0)"/>
       <use xlink:href="#DejaVuSans-74" transform="translate(659.773438 0)"/>
       <use xlink:href="#DejaVuSans-74" transform="translate(698.982422 0)"/>
       <use xlink:href="#DejaVuSans-69" transform="translate(738.191406 0)"/>
       <use xlink:href="#DejaVuSans-63" transform="translate(765.974609 0)"/>
       <use xlink:href="#DejaVuSans-65" transform="translate(820.955078 0)"/>
      </g>
     </g>
    </g>
    <g id="xtick_14">
     <g id="line2d_27">
      <path d="M 1177.406008 303.395988 
L 1177.406008 23.837812 
" clip-path="url(#p6e40a00d58)" style="fill: none; stroke: #b0b0b0; stroke-opacity: 0.3; stroke-width: 0.8; stroke-linecap: square"/>
     </g>
     <g id="line2d_28">
      <g>
       <use xlink:href="#mb610ad162c" x="1177.406008" y="303.395988" style="stroke: #000000; stroke-width: 0.8"/>
      </g>
     </g>
     <g id="text_14">
      <!-- hypercube -->
      <g transform="translate(1142.365442 348.948665) rotate(-45) scale(0.09 -0.09)">
       <use xlink:href="#DejaVuSans-68"/>
       <use xlink:href="#DejaVuSans-79" transform="translate(63.378906 0)"/>
       <use xlink:href="#DejaVuSans-70" transform="translate(122.558594 0)"/>
       <use xlink:href="#DejaVuSans-65" transform="translate(186.035156 0)"/>
       <use xlink:href="#DejaVuSans-72" transform="translate(247.558594 0)"/>
       <use xlink:href="#DejaVuSans-63" transform="translate(286.421875 0)"/>
       <use xlink:href="#DejaVuSans-75" transform="translate(341.402344 0)"/>
       <use xlink:href="#DejaVuSans-62" transform="translate(404.78125 0)"/>
       <use xlink:href="#DejaVuSans-65" transform="translate(468.257812 0)"/>
      </g>
     </g>
    </g>
    <g id="xtick_15">
     <g id="line2d_29">
      <path d="M 1254.538835 303.395988 
L 1254.538835 23.837812 
" clip-path="url(#p6e40a00d58)" style="fill: none; stroke: #b0b0b0; stroke-opacity: 0.3; stroke-width: 0.8; stroke-linecap: square"/>
     </g>
     <g id="line2d_30">
      <g>
       <use xlink:href="#mb610ad162c" x="1254.538835" y="303.395988" style="stroke: #000000; stroke-width: 0.8"/>
      </g>
     </g>
     <g id="text_15">
      <!-- path -->
      <g transform="translate(1238.747262 329.699672) rotate(-45) scale(0.09 -0.09)">
       <use xlink:href="#DejaVuSans-70"/>
       <use xlink:href="#DejaVuSans-61" transform="translate(63.476562 0)"/>
       <use xlink:href="#DejaVuSans-74" transform="translate(124.755859 0)"/>
       <use xlink:href="#DejaVuSans-68" transform="translate(163.964844 0)"/>
      </g>
     </g>
    </g>
    <g id="xtick_16">
     <g id="line2d_31">
      <path d="M 1331.671662 303.395988 
L 1331.671662 23.837812 
" clip-path="url(#p6e40a00d58)" style="fill: none; stroke: #b0b0b0; stroke-opacity: 0.3; stroke-width: 0.8; stroke-linecap: square"/>
     </g>
     <g id="line2d_32">
      <g>
       <use xlink:href="#mb610ad162c" x="1331.671662" y="303.395988" style="stroke: #000000; stroke-width: 0.8"/>
      </g>
     </g>
     <g id="text_16">
      <!-- random_geometric -->
      <g transform="translate(1269.96411 375.438653) rotate(-45) scale(0.09 -0.09)">
       <use xlink:href="#DejaVuSans-72"/>
       <use xlink:href="#DejaVuSans-61" transform="translate(41.113281 0)"/>
       <use xlink:href="#DejaVuSans-6e" transform="translate(102.392578 0)"/>
       <use xlink:href="#DejaVuSans-64" transform="translate(165.771484 0)"/>
       <use xlink:href="#DejaVuSans-6f" transform="translate(229.248047 0)"/>
       <use xlink:href="#DejaVuSans-6d" transform="translate(290.429688 0)"/>
       <use xlink:href="#DejaVuSans-5f" transform="translate(387.841797 0)"/>
       <use xlink:href="#DejaVuSans-67" transform="translate(437.841797 0)"/>
       <use xlink:href="#DejaVuSans-65" transform="translate(501.318359 0)"/>
       <use xlink:href="#DejaVuSans-6f" transform="translate(562.841797 0)"/>
       <use xlink:href="#DejaVuSans-6d" transform="translate(624.023438 0)"/>
       <use xlink:href="#DejaVuSans-65" transform="translate(721.435547 0)"/>
       <use xlink:href="#DejaVuSans-74" transform="translate(782.958984 0)"/>
       <use xlink:href="#DejaVuSans-72" transform="translate(822.167969 0)"/>
       <use xlink:href="#DejaVuSans-69" transform="translate(863.28125 0)"/>
       <use xlink:href="#DejaVuSans-63" transform="translate(891.064453 0)"/>
      </g>
     </g>
    </g>
    <g id="xtick_17">
     <g id="line2d_33">
      <path d="M 1408.804488 303.395988 
L 1408.804488 23.837812 
" clip-path="url(#p6e40a00d58)" style="fill: none; stroke: #b0b0b0; stroke-opacity: 0.3; stroke-width: 0.8; stroke-linecap: square"/>
     </g>
     <g id="line2d_34">
      <g>
       <use xlink:href="#mb610ad162c" x="1408.804488" y="303.395988" style="stroke: #000000; stroke-width: 0.8"/>
      </g>
     </g>
     <g id="text_17">
      <!-- random_regular_k4 -->
      <g transform="translate(1345.777409 376.75818) rotate(-45) scale(0.09 -0.09)">
       <defs>
        <path id="DejaVuSans-6b" d="M 581 4863 
L 1159 4863 
L 1159 1991 
L 2875 3500 
L 3609 3500 
L 1753 1863 
L 3688 0 
L 2938 0 
L 1159 1709 
L 1159 0 
L 581 0 
L 581 4863 
z
" transform="scale(0.015625)"/>
        <path id="DejaVuSans-34" d="M 2419 4116 
L 825 1625 
L 2419 1625 
L 2419 4116 
z
M 2253 4666 
L 3047 4666 
L 3047 1625 
L 3713 1625 
L 3713 1100 
L 3047 1100 
L 3047 0 
L 2419 0 
L 2419 1100 
L 313 1100 
L 313 1709 
L 2253 4666 
z
" transform="scale(0.015625)"/>
       </defs>
       <use xlink:href="#DejaVuSans-72"/>
       <use xlink:href="#DejaVuSans-61" transform="translate(41.113281 0)"/>
       <use xlink:href="#DejaVuSans-6e" transform="translate(102.392578 0)"/>
       <use xlink:href="#DejaVuSans-64" transform="translate(165.771484 0)"/>
       <use xlink:href="#DejaVuSans-6f" transform="translate(229.248047 0)"/>
       <use xlink:href="#DejaVuSans-6d" transform="translate(290.429688 0)"/>
       <use xlink:href="#DejaVuSans-5f" transform="translate(387.841797 0)"/>
       <use xlink:href="#DejaVuSans-72" transform="translate(437.841797 0)"/>
       <use xlink:href="#DejaVuSans-65" transform="translate(476.705078 0)"/>
       <use xlink:href="#DejaVuSans-67" transform="translate(538.228516 0)"/>
       <use xlink:href="#DejaVuSans-75" transform="translate(601.705078 0)"/>
       <use xlink:href="#DejaVuSans-6c" transform="translate(665.083984 0)"/>
       <use xlink:href="#DejaVuSans-61" transform="translate(692.867188 0)"/>
       <use xlink:href="#DejaVuSans-72" transform="translate(754.146484 0)"/>
       <use xlink:href="#DejaVuSans-5f" transform="translate(795.259766 0)"/>
       <use xlink:href="#DejaVuSans-6b" transform="translate(845.259766 0)"/>
       <use xlink:href="#DejaVuSans-34" transform="translate(903.169922 0)"/>
      </g>
     </g>
    </g>
    <g id="xtick_18">
     <g id="line2d_35">
      <path d="M 1485.937315 303.395988 
L 1485.937315 23.837812 
" clip-path="url(#p6e40a00d58)" style="fill: none; stroke: #b0b0b0; stroke-opacity: 0.3; stroke-width: 0.8; stroke-linecap: square"/>
     </g>
     <g id="line2d_36">
      <g>
       <use xlink:href="#mb610ad162c" x="1485.937315" y="303.395988" style="stroke: #000000; stroke-width: 0.8"/>
      </g>
     </g>
     <g id="text_18">
      <!-- random_sparse_bipartite -->
      <g transform="translate(1405.250244 394.418172) rotate(-45) scale(0.09 -0.09)">
       <use xlink:href="#DejaVuSans-72"/>
       <use xlink:href="#DejaVuSans-61" transform="translate(41.113281 0)"/>
       <use xlink:href="#DejaVuSans-6e" transform="translate(102.392578 0)"/>
       <use xlink:href="#DejaVuSans-64" transform="translate(165.771484 0)"/>
       <use xlink:href="#DejaVuSans-6f" transform="translate(229.248047 0)"/>
       <use xlink:href="#DejaVuSans-6d" transform="translate(290.429688 0)"/>
       <use xlink:href="#DejaVuSans-5f" transform="translate(387.841797 0)"/>
       <use xlink:href="#DejaVuSans-73" transform="translate(437.841797 0)"/>
       <use xlink:href="#DejaVuSans-70" transform="translate(489.941406 0)"/>
       <use xlink:href="#DejaVuSans-61" transform="translate(553.417969 0)"/>
       <use xlink:href="#DejaVuSans-72" transform="translate(614.697266 0)"/>
       <use xlink:href="#DejaVuSans-73" transform="translate(655.810547 0)"/>
       <use xlink:href="#DejaVuSans-65" transform="translate(707.910156 0)"/>
       <use xlink:href="#DejaVuSans-5f" transform="translate(769.433594 0)"/>
       <use xlink:href="#DejaVuSans-62" transform="translate(819.433594 0)"/>
       <use xlink:href="#DejaVuSans-69" transform="translate(882.910156 0)"/>
       <use xlink:href="#DejaVuSans-70" transform="translate(910.693359 0)"/>
       <use xlink:href="#DejaVuSans-61" transform="translate(974.169922 0)"/>
       <use xlink:href="#DejaVuSans-72" transform="translate(1035.449219 0)"/>
       <use xlink:href="#DejaVuSans-74" transform="translate(1076.5625 0)"/>
       <use xlink:href="#DejaVuSans-69" transform="translate(1115.771484 0)"/>
       <use xlink:href="#DejaVuSans-74" transform="translate(1143.554688 0)"/>
       <use xlink:href="#DejaVuSans-65" transform="translate(1182.763672 0)"/>
      </g>
     </g>
    </g>
    <g id="xtick_19">
     <g id="line2d_37">
      <path d="M 1563.070142 303.395988 
L 1563.070142 23.837812 
" clip-path="url(#p6e40a00d58)" style="fill: none; stroke: #b0b0b0; stroke-opacity: 0.3; stroke-width: 0.8; stroke-linecap: square"/>
     </g>
     <g id="line2d_38">
      <g>
       <use xlink:href="#mb610ad162c" x="1563.070142" y="303.395988" style="stroke: #000000; stroke-width: 0.8"/>
      </g>
     </g>
     <g id="text_19">
      <!-- star -->
      <g transform="translate(1549.42044 327.557801) rotate(-45) scale(0.09 -0.09)">
       <use xlink:href="#DejaVuSans-73"/>
       <use xlink:href="#DejaVuSans-74" transform="translate(52.099609 0)"/>
       <use xlink:href="#DejaVuSans-61" transform="translate(91.308594 0)"/>
       <use xlink:href="#DejaVuSans-72" transform="translate(152.587891 0)"/>
      </g>
     </g>
    </g>
    <g id="xtick_20">
     <g id="line2d_39">
      <path d="M 1640.202968 303.395988 
L 1640.202968 23.837812 
" clip-path="url(#p6e40a00d58)" style="fill: none; stroke: #b0b0b0; stroke-opacity: 0.3; stroke-width: 0.8; stroke-linecap: square"/>
     </g>
     <g id="line2d_40">
      <g>
       <use xlink:href="#mb610ad162c" x="1640.202968" y="303.395988" style="stroke: #000000; stroke-width: 0.8"/>
      </g>
     </g>
     <g id="text_20">
      <!-- stochastic_block_model -->
      <g transform="translate(1563.421779 390.512291) rotate(-45) scale(0.09 -0.09)">
       <use xlink:href="#DejaVuSans-73"/>
       <use xlink:href="#DejaVuSans-74" transform="translate(52.099609 0)"/>
       <use xlink:href="#DejaVuSans-6f" transform="translate(91.308594 0)"/>
       <use xlink:href="#DejaVuSans-63" transform="translate(152.490234 0)"/>
       <use xlink:href="#DejaVuSans-68" transform="translate(207.470703 0)"/>
       <use xlink:href="#DejaVuSans-61" transform="translate(270.849609 0)"/>
       <use xlink:href="#DejaVuSans-73" transform="translate(332.128906 0)"/>
       <use xlink:href="#DejaVuSans-74" transform="translate(384.228516 0)"/>
       <use xlink:href="#DejaVuSans-69" transform="translate(423.4375 0)"/>
       <use xlink:href="#DejaVuSans-63" transform="translate(451.220703 0)"/>
       <use xlink:href="#DejaVuSans-5f" transform="translate(506.201172 0)"/>
       <use xlink:href="#DejaVuSans-62" transform="translate(556.201172 0)"/>
       <use xlink:href="#DejaVuSans-6c" transform="translate(619.677734 0)"/>
       <use xlink:href="#DejaVuSans-6f" transform="translate(647.460938 0)"/>
       <use xlink:href="#DejaVuSans-63" transform="translate(708.642578 0)"/>
       <use xlink:href="#DejaVuSans-6b" transform="translate(763.623047 0)"/>
       <use xlink:href="#DejaVuSans-5f" transform="translate(821.533203 0)"/>
       <use xlink:href="#DejaVuSans-6d" transform="translate(871.533203 0)"/>
       <use xlink:href="#DejaVuSans-6f" transform="translate(968.945312 0)"/>
       <use xlink:href="#DejaVuSans-64" transform="translate(1030.126953 0)"/>
       <use xlink:href="#DejaVuSans-65" transform="translate(1093.603516 0)"/>
       <use xlink:href="#DejaVuSans-6c" transform="translate(1155.126953 0)"/>
      </g>
     </g>
    </g>
    <g id="xtick_21">
     <g id="line2d_41">
      <path d="M 1717.335795 303.395988 
L 1717.335795 23.837812 
" clip-path="url(#p6e40a00d58)" style="fill: none; stroke: #b0b0b0; stroke-opacity: 0.3; stroke-width: 0.8; stroke-linecap: square"/>
     </g>
     <g id="line2d_42">
      <g>
       <use xlink:href="#mb610ad162c" x="1717.335795" y="303.395988" style="stroke: #000000; stroke-width: 0.8"/>
      </g>
     </g>
     <g id="text_21">
      <!-- torus -->
      <g transform="translate(1699.658899 331.584995) rotate(-45) scale(0.09 -0.09)">
       <use xlink:href="#DejaVuSans-74"/>
       <use xlink:href="#DejaVuSans-6f" transform="translate(39.208984 0)"/>
       <use xlink:href="#DejaVuSans-72" transform="translate(100.390625 0)"/>
       <use xlink:href="#DejaVuSans-75" transform="translate(141.503906 0)"/>
       <use xlink:href="#DejaVuSans-73" transform="translate(204.882812 0)"/>
      </g>
     </g>
    </g>
    <g id="xtick_22">
     <g id="line2d_43">
      <path d="M 1794.468622 303.395988 
L 1794.468622 23.837812 
" clip-path="url(#p6e40a00d58)" style="fill: none; stroke: #b0b0b0; stroke-opacity: 0.3; stroke-width: 0.8; stroke-linecap: square"/>
     </g>
     <g id="line2d_44">
      <g>
       <use xlink:href="#mb610ad162c" x="1794.468622" y="303.395988" style="stroke: #000000; stroke-width: 0.8"/>
      </g>
     </g>
     <g id="text_22">
      <!-- triangular_lattice -->
      <g transform="translate(1738.776008 369.423715) rotate(-45) scale(0.09 -0.09)">
       <use xlink:href="#DejaVuSans-74"/>
       <use xlink:href="#DejaVuSans-72" transform="translate(39.208984 0)"/>
       <use xlink:href="#DejaVuSans-69" transform="translate(80.322266 0)"/>
       <use xlink:href="#DejaVuSans-61" transform="translate(108.105469 0)"/>
       <use xlink:href="#DejaVuSans-6e" transform="translate(169.384766 0)"/>
       <use xlink:href="#DejaVuSans-67" transform="translate(232.763672 0)"/>
       <use xlink:href="#DejaVuSans-75" transform="translate(296.240234 0)"/>
       <use xlink:href="#DejaVuSans-6c" transform="translate(359.619141 0)"/>
       <use xlink:href="#DejaVuSans-61" transform="translate(387.402344 0)"/>
       <use xlink:href="#DejaVuSans-72" transform="translate(448.681641 0)"/>
       <use xlink:href="#DejaVuSans-5f" transform="translate(489.794922 0)"/>
       <use xlink:href="#DejaVuSans-6c" transform="translate(539.794922 0)"/>
       <use xlink:href="#DejaVuSans-61" transform="translate(567.578125 0)"/>
       <use xlink:href="#DejaVuSans-74" transform="translate(628.857422 0)"/>
       <use xlink:href="#DejaVuSans-74" transform="translate(668.066406 0)"/>
       <use xlink:href="#DejaVuSans-69" transform="translate(707.275391 0)"/>
       <use xlink:href="#DejaVuSans-63" transform="translate(735.058594 0)"/>
       <use xlink:href="#DejaVuSans-65" transform="translate(790.039062 0)"/>
      </g>
     </g>
    </g>
    <g id="xtick_23">
     <g id="line2d_45">
      <path d="M 1871.601448 303.395988 
L 1871.601448 23.837812 
" clip-path="url(#p6e40a00d58)" style="fill: none; stroke: #b0b0b0; stroke-opacity: 0.3; stroke-width: 0.8; stroke-linecap: square"/>
     </g>
     <g id="line2d_46">
      <g>
       <use xlink:href="#mb610ad162c" x="1871.601448" y="303.395988" style="stroke: #000000; stroke-width: 0.8"/>
      </g>
     </g>
     <g id="text_23">
      <!-- turan -->
      <g transform="translate(1853.200652 332.308896) rotate(-45) scale(0.09 -0.09)">
       <use xlink:href="#DejaVuSans-74"/>
       <use xlink:href="#DejaVuSans-75" transform="translate(39.208984 0)"/>
       <use xlink:href="#DejaVuSans-72" transform="translate(102.587891 0)"/>
       <use xlink:href="#DejaVuSans-61" transform="translate(143.701172 0)"/>
       <use xlink:href="#DejaVuSans-6e" transform="translate(204.980469 0)"/>
      </g>
     </g>
    </g>
    <g id="xtick_24">
     <g id="line2d_47">
      <path d="M 1948.734275 303.395988 
L 1948.734275 23.837812 
" clip-path="url(#p6e40a00d58)" style="fill: none; stroke: #b0b0b0; stroke-opacity: 0.3; stroke-width: 0.8; stroke-linecap: square"/>
     </g>
     <g id="line2d_48">
      <g>
       <use xlink:href="#mb610ad162c" x="1948.734275" y="303.395988" style="stroke: #000000; stroke-width: 0.8"/>
      </g>
     </g>
     <g id="text_24">
      <!-- watts_strogatz -->
      <g transform="translate(1900.690347 361.598032) rotate(-45) scale(0.09 -0.09)">
       <defs>
        <path id="DejaVuSans-7a" d="M 353 3500 
L 3084 3500 
L 3084 2975 
L 922 459 
L 3084 459 
L 3084 0 
L 275 0 
L 275 525 
L 2438 3041 
L 353 3041 
L 353 3500 
z
" transform="scale(0.015625)"/>
       </defs>
       <use xlink:href="#DejaVuSans-77"/>
       <use xlink:href="#DejaVuSans-61" transform="translate(81.787109 0)"/>
       <use xlink:href="#DejaVuSans-74" transform="translate(143.066406 0)"/>
       <use xlink:href="#DejaVuSans-74" transform="translate(182.275391 0)"/>
       <use xlink:href="#DejaVuSans-73" transform="translate(221.484375 0)"/>
       <use xlink:href="#DejaVuSans-5f" transform="translate(273.583984 0)"/>
       <use xlink:href="#DejaVuSans-73" transform="translate(323.583984 0)"/>
       <use xlink:href="#DejaVuSans-74" transform="translate(375.683594 0)"/>
       <use xlink:href="#DejaVuSans-72" transform="translate(414.892578 0)"/>
       <use xlink:href="#DejaVuSans-6f" transform="translate(453.755859 0)"/>
       <use xlink:href="#DejaVuSans-67" transform="translate(514.9375 0)"/>
       <use xlink:href="#DejaVuSans-61" transform="translate(578.414062 0)"/>
       <use xlink:href="#DejaVuSans-74" transform="translate(639.693359 0)"/>
       <use xlink:href="#DejaVuSans-7a" transform="translate(678.902344 0)"/>
      </g>
     </g>
    </g>
    <g id="xtick_25">
     <g id="line2d_49">
      <path d="M 2025.867102 303.395988 
L 2025.867102 23.837812 
" clip-path="url(#p6e40a00d58)" style="fill: none; stroke: #b0b0b0; stroke-opacity: 0.3; stroke-width: 0.8; stroke-linecap: square"/>
     </g>
     <g id="line2d_50">
      <g>
       <use xlink:href="#mb610ad162c" x="2025.867102" y="303.395988" style="stroke: #000000; stroke-width: 0.8"/>
      </g>
     </g>
     <g id="text_25">
      <!-- wheel -->
      <g transform="translate(2005.706272 334.068929) rotate(-45) scale(0.09 -0.09)">
       <use xlink:href="#DejaVuSans-77"/>
       <use xlink:href="#DejaVuSans-68" transform="translate(81.787109 0)"/>
       <use xlink:href="#DejaVuSans-65" transform="translate(145.166016 0)"/>
       <use xlink:href="#DejaVuSans-65" transform="translate(206.689453 0)"/>
       <use xlink:href="#DejaVuSans-6c" transform="translate(268.212891 0)"/>
      </g>
     </g>
    </g>
    <g id="xtick_26">
     <g id="line2d_51">
      <path d="M 2102.999928 303.395988 
L 2102.999928 23.837812 
" clip-path="url(#p6e40a00d58)" style="fill: none; stroke: #b0b0b0; stroke-opacity: 0.3; stroke-width: 0.8; stroke-linecap: square"/>
     </g>
     <g id="line2d_52">
      <g>
       <use xlink:href="#mb610ad162c" x="2102.999928" y="303.395988" style="stroke: #000000; stroke-width: 0.8"/>
      </g>
     </g>
     <g id="text_26">
      <!-- windmill_k4 -->
      <g transform="translate(2064.034588 352.696441) rotate(-45) scale(0.09 -0.09)">
       <use xlink:href="#DejaVuSans-77"/>
       <use xlink:href="#DejaVuSans-69" transform="translate(81.787109 0)"/>
       <use xlink:href="#DejaVuSans-6e" transform="translate(109.570312 0)"/>
       <use xlink:href="#DejaVuSans-64" transform="translate(172.949219 0)"/>
       <use xlink:href="#DejaVuSans-6d" transform="translate(236.425781 0)"/>
       <use xlink:href="#DejaVuSans-69" transform="translate(333.837891 0)"/>
       <use xlink:href="#DejaVuSans-6c" transform="translate(361.621094 0)"/>
       <use xlink:href="#DejaVuSans-6c" transform="translate(389.404297 0)"/>
       <use xlink:href="#DejaVuSans-5f" transform="translate(417.1875 0)"/>
       <use xlink:href="#DejaVuSans-6b" transform="translate(467.1875 0)"/>
       <use xlink:href="#DejaVuSans-34" transform="translate(525.097656 0)"/>
      </g>
     </g>
    </g>
   </g>
   <g id="matplotlib.axis_2">
    <g id="ytick_1">
     <g id="line2d_53">
      <path d="M 46.445938 299.988983 
L 2231.233253 299.988983 
" clip-path="url(#p6e40a00d58)" style="fill: none; stroke: #b0b0b0; stroke-opacity: 0.3; stroke-width: 0.8; stroke-linecap: square"/>
     </g>
     <g id="line2d_54">
      <defs>
       <path id="m3188c4d676" d="M 0 0 
L -3.5 0 
" style="stroke: #000000; stroke-width: 0.8"/>
      </defs>
      <g>
       <use xlink:href="#m3188c4d676" x="46.445938" y="299.988983" style="stroke: #000000; stroke-width: 0.8"/>
      </g>
     </g>
     <g id="text_27">
      <!-- $\mathdefault{10^{0}}$ -->
      <g transform="translate(21.845938 303.788202) scale(0.1 -0.1)">
       <defs>
        <path id="DejaVuSans-31" d="M 794 531 
L 1825 531 
L 1825 4091 
L 703 3866 
L 703 4441 
L 1819 4666 
L 2450 4666 
L 2450 531 
L 3481 531 
L 3481 0 
L 794 0 
L 794 531 
z
" transform="scale(0.015625)"/>
        <path id="DejaVuSans-30" d="M 2034 4250 
Q 1547 4250 1301 3770 
Q 1056 3291 1056 2328 
Q 1056 1369 1301 889 
Q 1547 409 2034 409 
Q 2525 409 2770 889 
Q 3016 1369 3016 2328 
Q 3016 3291 2770 3770 
Q 2525 4250 2034 4250 
z
M 2034 4750 
Q 2819 4750 3233 4129 
Q 3647 3509 3647 2328 
Q 3647 1150 3233 529 
Q 2819 -91 2034 -91 
Q 1250 -91 836 529 
Q 422 1150 422 2328 
Q 422 3509 836 4129 
Q 1250 4750 2034 4750 
z
" transform="scale(0.015625)"/>
       </defs>
       <use xlink:href="#DejaVuSans-31" transform="translate(0 0.765625)"/>
       <use xlink:href="#DejaVuSans-30" transform="translate(63.623047 0.765625)"/>
       <use xlink:href="#DejaVuSans-30" transform="translate(128.203125 39.046875) scale(0.7)"/>
      </g>
     </g>
    </g>
    <g id="ytick_2">
     <g id="line2d_55">
      <path d="M 46.445938 174.631736 
L 2231.233253 174.631736 
" clip-path="url(#p6e40a00d58)" style="fill: none; stroke: #b0b0b0; stroke-opacity: 0.3; stroke-width: 0.8; stroke-linecap: square"/>
     </g>
     <g id="line2d_56">
      <g>
       <use xlink:href="#m3188c4d676" x="46.445938" y="174.631736" style="stroke: #000000; stroke-width: 0.8"/>
      </g>
     </g>
     <g id="text_28">
      <!-- $\mathdefault{10^{1}}$ -->
      <g transform="translate(21.845938 178.430955) scale(0.1 -0.1)">
       <use xlink:href="#DejaVuSans-31" transform="translate(0 0.684375)"/>
       <use xlink:href="#DejaVuSans-30" transform="translate(63.623047 0.684375)"/>
       <use xlink:href="#DejaVuSans-31" transform="translate(128.203125 38.965625) scale(0.7)"/>
      </g>
     </g>
    </g>
    <g id="ytick_3">
     <g id="line2d_57">
      <path d="M 46.445938 49.274489 
L 2231.233253 49.274489 
" clip-path="url(#p6e40a00d58)" style="fill: none; stroke: #b0b0b0; stroke-opacity: 0.3; stroke-width: 0.8; stroke-linecap: square"/>
     </g>
     <g id="line2d_58">
      <g>
       <use xlink:href="#m3188c4d676" x="46.445938" y="49.274489" style="stroke: #000000; stroke-width: 0.8"/>
      </g>
     </g>
     <g id="text_29">
      <!-- $\mathdefault{10^{2}}$ -->
      <g transform="translate(21.845938 53.073708) scale(0.1 -0.1)">
       <defs>
        <path id="DejaVuSans-32" d="M 1228 531 
L 3431 531 
L 3431 0 
L 469 0 
L 469 531 
Q 828 903 1448 1529 
Q 2069 2156 2228 2338 
Q 2531 2678 2651 2914 
Q 2772 3150 2772 3378 
Q 2772 3750 2511 3984 
Q 2250 4219 1831 4219 
Q 1534 4219 1204 4116 
Q 875 4013 500 3803 
L 500 4441 
Q 881 4594 1212 4672 
Q 1544 4750 1819 4750 
Q 2544 4750 2975 4387 
Q 3406 4025 3406 3419 
Q 3406 3131 3298 2873 
Q 3191 2616 2906 2266 
Q 2828 2175 2409 1742 
Q 1991 1309 1228 531 
z
" transform="scale(0.015625)"/>
       </defs>
       <use xlink:href="#DejaVuSans-31" transform="translate(0 0.765625)"/>
       <use xlink:href="#DejaVuSans-30" transform="translate(63.623047 0.765625)"/>
       <use xlink:href="#DejaVuSans-32" transform="translate(128.203125 39.046875) scale(0.7)"/>
      </g>
     </g>
    </g>
    <g id="ytick_4">
     <g id="line2d_59">
      <defs>
       <path id="m68e5bfe80f" d="M 0 0 
L -2 0 
" style="stroke: #000000; stroke-width: 0.6"/>
      </defs>
      <g>
       <use xlink:href="#m68e5bfe80f" x="46.445938" y="262.252692" style="stroke: #000000; stroke-width: 0.6"/>
      </g>
     </g>
    </g>
    <g id="ytick_5">
     <g id="line2d_60">
      <g>
       <use xlink:href="#m68e5bfe80f" x="46.445938" y="240.178376" style="stroke: #000000; stroke-width: 0.6"/>
      </g>
     </g>
    </g>
    <g id="ytick_6">
     <g id="line2d_61">
      <g>
       <use xlink:href="#m68e5bfe80f" x="46.445938" y="224.5164" style="stroke: #000000; stroke-width: 0.6"/>
      </g>
     </g>
    </g>
    <g id="ytick_7">
     <g id="line2d_62">
      <g>
       <use xlink:href="#m68e5bfe80f" x="46.445938" y="212.368028" style="stroke: #000000; stroke-width: 0.6"/>
      </g>
     </g>
    </g>
    <g id="ytick_8">
     <g id="line2d_63">
      <g>
       <use xlink:href="#m68e5bfe80f" x="46.445938" y="202.442085" style="stroke: #000000; stroke-width: 0.6"/>
      </g>
     </g>
    </g>
    <g id="ytick_9">
     <g id="line2d_64">
      <g>
       <use xlink:href="#m68e5bfe80f" x="46.445938" y="194.049819" style="stroke: #000000; stroke-width: 0.6"/>
      </g>
     </g>
    </g>
    <g id="ytick_10">
     <g id="line2d_65">
      <g>
       <use xlink:href="#m68e5bfe80f" x="46.445938" y="186.780109" style="stroke: #000000; stroke-width: 0.6"/>
      </g>
     </g>
    </g>
    <g id="ytick_11">
     <g id="line2d_66">
      <g>
       <use xlink:href="#m68e5bfe80f" x="46.445938" y="180.367769" style="stroke: #000000; stroke-width: 0.6"/>
      </g>
     </g>
    </g>
    <g id="ytick_12">
     <g id="line2d_67">
      <g>
       <use xlink:href="#m68e5bfe80f" x="46.445938" y="136.895445" style="stroke: #000000; stroke-width: 0.6"/>
      </g>
     </g>
    </g>
    <g id="ytick_13">
     <g id="line2d_68">
      <g>
       <use xlink:href="#m68e5bfe80f" x="46.445938" y="114.821129" style="stroke: #000000; stroke-width: 0.6"/>
      </g>
     </g>
    </g>
    <g id="ytick_14">
     <g id="line2d_69">
      <g>
       <use xlink:href="#m68e5bfe80f" x="46.445938" y="99.159153" style="stroke: #000000; stroke-width: 0.6"/>
      </g>
     </g>
    </g>
    <g id="ytick_15">
     <g id="line2d_70">
      <g>
       <use xlink:href="#m68e5bfe80f" x="46.445938" y="87.010781" style="stroke: #000000; stroke-width: 0.6"/>
      </g>
     </g>
    </g>
    <g id="ytick_16">
     <g id="line2d_71">
      <g>
       <use xlink:href="#m68e5bfe80f" x="46.445938" y="77.084838" style="stroke: #000000; stroke-width: 0.6"/>
      </g>
     </g>
    </g>
    <g id="ytick_17">
     <g id="line2d_72">
      <g>
       <use xlink:href="#m68e5bfe80f" x="46.445938" y="68.692572" style="stroke: #000000; stroke-width: 0.6"/>
      </g>
     </g>
    </g>
    <g id="ytick_18">
     <g id="line2d_73">
      <g>
       <use xlink:href="#m68e5bfe80f" x="46.445938" y="61.422861" style="stroke: #000000; stroke-width: 0.6"/>
      </g>
     </g>
    </g>
    <g id="ytick_19">
     <g id="line2d_74">
      <g>
       <use xlink:href="#m68e5bfe80f" x="46.445938" y="55.010522" style="stroke: #000000; stroke-width: 0.6"/>
      </g>
     </g>
    </g>
    <g id="text_30">
     <!-- Time (ms) -->
     <g transform="translate(15.558281 191.336041) rotate(-90) scale(0.11 -0.11)">
      <defs>
       <path id="DejaVuSans-54" d="M -19 4666 
L 3928 4666 
L 3928 4134 
L 2272 4134 
L 2272 0 
L 1638 0 
L 1638 4134 
L -19 4134 
L -19 4666 
z
" transform="scale(0.015625)"/>
       <path id="DejaVuSans-20" transform="scale(0.015625)"/>
       <path id="DejaVuSans-28" d="M 1984 4856 
Q 1566 4138 1362 3434 
Q 1159 2731 1159 2009 
Q 1159 1288 1364 580 
Q 1569 -128 1984 -844 
L 1484 -844 
Q 1016 -109 783 600 
Q 550 1309 550 2009 
Q 550 2706 781 3412 
Q 1013 4119 1484 4856 
L 1984 4856 
z
" transform="scale(0.015625)"/>
       <path id="DejaVuSans-29" d="M 513 4856 
L 1013 4856 
Q 1481 4119 1714 3412 
Q 1947 2706 1947 2009 
Q 1947 1309 1714 600 
Q 1481 -109 1013 -844 
L 513 -844 
Q 928 -128 1133 580 
Q 1338 1288 1338 2009 
Q 1338 2731 1133 3434 
Q 928 4138 513 4856 
z
" transform="scale(0.015625)"/>
      </defs>
      <use xlink:href="#DejaVuSans-54"/>
      <use xlink:href="#DejaVuSans-69" transform="translate(57.958984 0)"/>
      <use xlink:href="#DejaVuSans-6d" transform="translate(85.742188 0)"/>
      <use xlink:href="#DejaVuSans-65" transform="translate(183.154297 0)"/>
      <use xlink:href="#DejaVuSans-20" transform="translate(244.677734 0)"/>
      <use xlink:href="#DejaVuSans-28" transform="translate(276.464844 0)"/>
      <use xlink:href="#DejaVuSans-6d" transform="translate(315.478516 0)"/>
      <use xlink:href="#DejaVuSans-73" transform="translate(412.890625 0)"/>
      <use xlink:href="#DejaVuSans-29" transform="translate(464.990234 0)"/>
     </g>
    </g>
   </g>
   <g id="patch_81">
    <path d="M 46.445938 303.395988 
L 46.445938 23.837812 
" style="fill: none; stroke: #000000; stroke-width: 0.8; stroke-linejoin: miter; stroke-linecap: square"/>
   </g>
   <g id="patch_82">
    <path d="M 2231.233253 303.395988 
L 2231.233253 23.837812 
" style="fill: none; stroke: #000000; stroke-width: 0.8; stroke-linejoin: miter; stroke-linecap: square"/>
   </g>
   <g id="patch_83">
    <path d="M 46.445937 303.395988 
L 2231.233253 303.395988 
" style="fill: none; stroke: #000000; stroke-width: 0.8; stroke-linejoin: miter; stroke-linecap: square"/>
   </g>
   <g id="patch_84">
    <path d="M 46.445937 23.837812 
L 2231.233253 23.837812 
" style="fill: none; stroke: #000000; stroke-width: 0.8; stroke-linejoin: miter; stroke-linecap: square"/>
   </g>
   <g id="text_31">
    <!-- Topology Comparison (V~500) -->
    <g transform="translate(1019.628501 17.837812) scale(0.14 -0.14)">
     <defs>
      <path id="DejaVuSans-Bold-54" d="M 31 4666 
L 4331 4666 
L 4331 3756 
L 2784 3756 
L 2784 0 
L 1581 0 
L 1581 3756 
L 31 3756 
L 31 4666 
z
" transform="scale(0.015625)"/>
      <path id="DejaVuSans-Bold-6f" d="M 2203 2784 
Q 1831 2784 1636 2517 
Q 1441 2250 1441 1747 
Q 1441 1244 1636 976 
Q 1831 709 2203 709 
Q 2569 709 2762 976 
Q 2956 1244 2956 1747 
Q 2956 2250 2762 2517 
Q 2569 2784 2203 2784 
z
M 2203 3584 
Q 3106 3584 3614 3096 
Q 4122 2609 4122 1747 
Q 4122 884 3614 396 
Q 3106 -91 2203 -91 
Q 1297 -91 786 396 
Q 275 884 275 1747 
Q 275 2609 786 3096 
Q 1297 3584 2203 3584 
z
" transform="scale(0.015625)"/>
      <path id="DejaVuSans-Bold-70" d="M 1656 506 
L 1656 -1331 
L 538 -1331 
L 538 3500 
L 1656 3500 
L 1656 2988 
Q 1888 3294 2169 3439 
Q 2450 3584 2816 3584 
Q 3463 3584 3878 3070 
Q 4294 2556 4294 1747 
Q 4294 938 3878 423 
Q 3463 -91 2816 -91 
Q 2450 -91 2169 54 
Q 1888 200 1656 506 
z
M 2400 2772 
Q 2041 2772 1848 2508 
Q 1656 2244 1656 1747 
Q 1656 1250 1848 986 
Q 2041 722 2400 722 
Q 2759 722 2948 984 
Q 3138 1247 3138 1747 
Q 3138 2247 2948 2509 
Q 2759 2772 2400 2772 
z
" transform="scale(0.015625)"/>
      <path id="DejaVuSans-Bold-6c" d="M 538 4863 
L 1656 4863 
L 1656 0 
L 538 0 
L 538 4863 
z
" transform="scale(0.015625)"/>
      <path id="DejaVuSans-Bold-67" d="M 2919 594 
Q 2688 288 2409 144 
Q 2131 0 1766 0 
Q 1125 0 706 504 
Q 288 1009 288 1791 
Q 288 2575 706 3076 
Q 1125 3578 1766 3578 
Q 2131 3578 2409 3434 
Q 2688 3291 2919 2981 
L 2919 3500 
L 4044 3500 
L 4044 353 
Q 4044 -491 3511 -936 
Q 2978 -1381 1966 -1381 
Q 1638 -1381 1331 -1331 
Q 1025 -1281 716 -1178 
L 716 -306 
Q 1009 -475 1290 -558 
Q 1572 -641 1856 -641 
Q 2406 -641 2662 -400 
Q 2919 -159 2919 353 
L 2919 594 
z
M 2181 2772 
Q 1834 2772 1640 2515 
Q 1447 2259 1447 1791 
Q 1447 1309 1634 1061 
Q 1822 813 2181 813 
Q 2531 813 2725 1069 
Q 2919 1325 2919 1791 
Q 2919 2259 2725 2515 
Q 2531 2772 2181 2772 
z
" transform="scale(0.015625)"/>
      <path id="DejaVuSans-Bold-79" d="M 78 3500 
L 1197 3500 
L 2138 1125 
L 2938 3500 
L 4056 3500 
L 2584 -331 
Q 2363 -916 2067 -1148 
Q 1772 -1381 1288 -1381 
L 641 -1381 
L 641 -647 
L 991 -647 
Q 1275 -647 1404 -556 
Q 1534 -466 1606 -231 
L 1638 -134 
L 78 3500 
z
" transform="scale(0.015625)"/>
      <path id="DejaVuSans-Bold-20" transform="scale(0.015625)"/>
      <path id="DejaVuSans-Bold-43" d="M 4288 256 
Q 3956 84 3597 -3 
Q 3238 -91 2847 -91 
Q 1681 -91 1000 561 
Q 319 1213 319 2328 
Q 319 3447 1000 4098 
Q 1681 4750 2847 4750 
Q 3238 4750 3597 4662 
Q 3956 4575 4288 4403 
L 4288 3438 
Q 3953 3666 3628 3772 
Q 3303 3878 2944 3878 
Q 2300 3878 1931 3465 
Q 1563 3053 1563 2328 
Q 1563 1606 1931 1193 
Q 2300 781 2944 781 
Q 3303 781 3628 887 
Q 3953 994 4288 1222 
L 4288 256 
z
" transform="scale(0.015625)"/>
      <path id="DejaVuSans-Bold-6d" d="M 3781 2919 
Q 3994 3244 4286 3414 
Q 4578 3584 4928 3584 
Q 5531 3584 5847 3212 
Q 6163 2841 6163 2131 
L 6163 0 
L 5038 0 
L 5038 1825 
Q 5041 1866 5042 1909 
Q 5044 1953 5044 2034 
Q 5044 2406 4934 2573 
Q 4825 2741 4581 2741 
Q 4263 2741 4089 2478 
Q 3916 2216 3909 1719 
L 3909 0 
L 2784 0 
L 2784 1825 
Q 2784 2406 2684 2573 
Q 2584 2741 2328 2741 
Q 2006 2741 1831 2477 
Q 1656 2213 1656 1722 
L 1656 0 
L 531 0 
L 531 3500 
L 1656 3500 
L 1656 2988 
Q 1863 3284 2130 3434 
Q 2397 3584 2719 3584 
Q 3081 3584 3359 3409 
Q 3638 3234 3781 2919 
z
" transform="scale(0.015625)"/>
      <path id="DejaVuSans-Bold-61" d="M 2106 1575 
Q 1756 1575 1579 1456 
Q 1403 1338 1403 1106 
Q 1403 894 1545 773 
Q 1688 653 1941 653 
Q 2256 653 2472 879 
Q 2688 1106 2688 1447 
L 2688 1575 
L 2106 1575 
z
M 3816 1997 
L 3816 0 
L 2688 0 
L 2688 519 
Q 2463 200 2181 54 
Q 1900 -91 1497 -91 
Q 953 -91 614 226 
Q 275 544 275 1050 
Q 275 1666 698 1953 
Q 1122 2241 2028 2241 
L 2688 2241 
L 2688 2328 
Q 2688 2594 2478 2717 
Q 2269 2841 1825 2841 
Q 1466 2841 1156 2769 
Q 847 2697 581 2553 
L 581 3406 
Q 941 3494 1303 3539 
Q 1666 3584 2028 3584 
Q 2975 3584 3395 3211 
Q 3816 2838 3816 1997 
z
" transform="scale(0.015625)"/>
      <path id="DejaVuSans-Bold-72" d="M 3138 2547 
Q 2991 2616 2845 2648 
Q 2700 2681 2553 2681 
Q 2122 2681 1889 2404 
Q 1656 2128 1656 1613 
L 1656 0 
L 538 0 
L 538 3500 
L 1656 3500 
L 1656 2925 
Q 1872 3269 2151 3426 
Q 2431 3584 2822 3584 
Q 2878 3584 2943 3579 
Q 3009 3575 3134 3559 
L 3138 2547 
z
" transform="scale(0.015625)"/>
      <path id="DejaVuSans-Bold-69" d="M 538 3500 
L 1656 3500 
L 1656 0 
L 538 0 
L 538 3500 
z
M 538 4863 
L 1656 4863 
L 1656 3950 
L 538 3950 
L 538 4863 
z
" transform="scale(0.015625)"/>
      <path id="DejaVuSans-Bold-73" d="M 3272 3391 
L 3272 2541 
Q 2913 2691 2578 2766 
Q 2244 2841 1947 2841 
Q 1628 2841 1473 2761 
Q 1319 2681 1319 2516 
Q 1319 2381 1436 2309 
Q 1553 2238 1856 2203 
L 2053 2175 
Q 2913 2066 3209 1816 
Q 3506 1566 3506 1031 
Q 3506 472 3093 190 
Q 2681 -91 1863 -91 
Q 1516 -91 1145 -36 
Q 775 19 384 128 
L 384 978 
Q 719 816 1070 734 
Q 1422 653 1784 653 
Q 2113 653 2278 743 
Q 2444 834 2444 1013 
Q 2444 1163 2330 1236 
Q 2216 1309 1875 1350 
L 1678 1375 
Q 931 1469 631 1722 
Q 331 1975 331 2491 
Q 331 3047 712 3315 
Q 1094 3584 1881 3584 
Q 2191 3584 2531 3537 
Q 2872 3491 3272 3391 
z
" transform="scale(0.015625)"/>
      <path id="DejaVuSans-Bold-6e" d="M 4056 2131 
L 4056 0 
L 2931 0 
L 2931 347 
L 2931 1631 
Q 2931 2084 2911 2256 
Q 2891 2428 2841 2509 
Q 2775 2619 2662 2680 
Q 2550 2741 2406 2741 
Q 2056 2741 1856 2470 
Q 1656 2200 1656 1722 
L 1656 0 
L 538 0 
L 538 3500 
L 1656 3500 
L 1656 2988 
Q 1909 3294 2193 3439 
Q 2478 3584 2822 3584 
Q 3428 3584 3742 3212 
Q 4056 2841 4056 2131 
z
" transform="scale(0.015625)"/>
      <path id="DejaVuSans-Bold-28" d="M 2413 -844 
L 1484 -844 
Q 1006 -72 778 623 
Q 550 1319 550 2003 
Q 550 2688 779 3389 
Q 1009 4091 1484 4856 
L 2413 4856 
Q 2013 4116 1813 3408 
Q 1613 2700 1613 2009 
Q 1613 1319 1811 609 
Q 2009 -100 2413 -844 
z
" transform="scale(0.015625)"/>
      <path id="DejaVuSans-Bold-56" d="M 31 4666 
L 1241 4666 
L 2478 1222 
L 3713 4666 
L 4922 4666 
L 3194 0 
L 1759 0 
L 31 4666 
z
" transform="scale(0.015625)"/>
      <path id="DejaVuSans-Bold-7e" d="M 4684 2656 
L 4684 1894 
Q 4353 1644 4073 1536 
Q 3794 1428 3494 1428 
Q 3159 1428 2713 1609 
Q 2669 1628 2644 1638 
Q 2622 1647 2575 1666 
Q 2091 1856 1797 1856 
Q 1522 1856 1253 1736 
Q 984 1616 678 1356 
L 678 2119 
Q 1013 2369 1291 2476 
Q 1569 2584 1869 2584 
Q 2203 2584 2650 2403 
Q 2697 2384 2719 2375 
Q 2741 2366 2788 2347 
Q 3272 2156 3566 2156 
Q 3834 2156 4098 2273 
Q 4363 2391 4684 2656 
z
" transform="scale(0.015625)"/>
      <path id="DejaVuSans-Bold-35" d="M 678 4666 
L 3669 4666 
L 3669 3781 
L 1638 3781 
L 1638 3059 
Q 1775 3097 1914 3117 
Q 2053 3138 2203 3138 
Q 3056 3138 3531 2711 
Q 4006 2284 4006 1522 
Q 4006 766 3489 337 
Q 2972 -91 2053 -91 
Q 1656 -91 1267 -14 
Q 878 63 494 219 
L 494 1166 
Q 875 947 1217 837 
Q 1559 728 1863 728 
Q 2300 728 2551 942 
Q 2803 1156 2803 1522 
Q 2803 1891 2551 2103 
Q 2300 2316 1863 2316 
Q 1603 2316 1309 2248 
Q 1016 2181 678 2041 
L 678 4666 
z
" transform="scale(0.015625)"/>
      <path id="DejaVuSans-Bold-30" d="M 2944 2338 
Q 2944 3213 2780 3570 
Q 2616 3928 2228 3928 
Q 1841 3928 1675 3570 
Q 1509 3213 1509 2338 
Q 1509 1453 1675 1090 
Q 1841 728 2228 728 
Q 2613 728 2778 1090 
Q 2944 1453 2944 2338 
z
M 4147 2328 
Q 4147 1169 3647 539 
Q 3147 -91 2228 -91 
Q 1306 -91 806 539 
Q 306 1169 306 2328 
Q 306 3491 806 4120 
Q 1306 4750 2228 4750 
Q 3147 4750 3647 4120 
Q 4147 3491 4147 2328 
z
" transform="scale(0.015625)"/>
      <path id="DejaVuSans-Bold-29" d="M 513 -844 
Q 913 -100 1113 609 
Q 1313 1319 1313 2009 
Q 1313 2700 1113 3408 
Q 913 4116 513 4856 
L 1441 4856 
Q 1916 4091 2145 3389 
Q 2375 2688 2375 2003 
Q 2375 1319 2147 623 
Q 1919 -72 1441 -844 
L 513 -844 
z
" transform="scale(0.015625)"/>
     </defs>
     <use xlink:href="#DejaVuSans-Bold-54"/>
     <use xlink:href="#DejaVuSans-Bold-6f" transform="translate(54.962891 0)"/>
     <use xlink:href="#DejaVuSans-Bold-70" transform="translate(123.664062 0)"/>
     <use xlink:href="#DejaVuSans-Bold-6f" transform="translate(195.246094 0)"/>
     <use xlink:href="#DejaVuSans-Bold-6c" transform="translate(263.947266 0)"/>
     <use xlink:href="#DejaVuSans-Bold-6f" transform="translate(298.224609 0)"/>
     <use xlink:href="#DejaVuSans-Bold-67" transform="translate(366.925781 0)"/>
     <use xlink:href="#DejaVuSans-Bold-79" transform="translate(438.507812 0)"/>
     <use xlink:href="#DejaVuSans-Bold-20" transform="translate(503.693359 0)"/>
     <use xlink:href="#DejaVuSans-Bold-43" transform="translate(538.507812 0)"/>
     <use xlink:href="#DejaVuSans-Bold-6f" transform="translate(611.896484 0)"/>
     <use xlink:href="#DejaVuSans-Bold-6d" transform="translate(680.597656 0)"/>
     <use xlink:href="#DejaVuSans-Bold-70" transform="translate(784.796875 0)"/>
     <use xlink:href="#DejaVuSans-Bold-61" transform="translate(856.378906 0)"/>
     <use xlink:href="#DejaVuSans-Bold-72" transform="translate(923.859375 0)"/>
     <use xlink:href="#DejaVuSans-Bold-69" transform="translate(973.175781 0)"/>
     <use xlink:href="#DejaVuSans-Bold-73" transform="translate(1007.453125 0)"/>
     <use xlink:href="#DejaVuSans-Bold-6f" transform="translate(1066.974609 0)"/>
     <use xlink:href="#DejaVuSans-Bold-6e" transform="translate(1135.675781 0)"/>
     <use xlink:href="#DejaVuSans-Bold-20" transform="translate(1206.867188 0)"/>
     <use xlink:href="#DejaVuSans-Bold-28" transform="translate(1241.681641 0)"/>
     <use xlink:href="#DejaVuSans-Bold-56" transform="translate(1287.384766 0)"/>
     <use xlink:href="#DejaVuSans-Bold-7e" transform="translate(1364.777344 0)"/>
     <use xlink:href="#DejaVuSans-Bold-35" transform="translate(1448.566406 0)"/>
     <use xlink:href="#DejaVuSans-Bold-30" transform="translate(1518.146484 0)"/>
     <use xlink:href="#DejaVuSans-Bold-30" transform="translate(1587.726562 0)"/>
     <use xlink:href="#DejaVuSans-Bold-29" transform="translate(1657.306641 0)"/>
    </g>
   </g>
   <g id="legend_1">
    <g id="patch_85">
     <path d="M 2121.874815 70.66875 
L 2224.933253 70.66875 
Q 2226.733253 70.66875 2226.733253 68.86875 
L 2226.733253 30.137812 
Q 2226.733253 28.337812 2224.933253 28.337812 
L 2121.874815 28.337812 
Q 2120.074815 28.337812 2120.074815 30.137812 
L 2120.074815 68.86875 
Q 2120.074815 70.66875 2121.874815 70.66875 
z
" style="fill: #fafafa; opacity: 0.8; stroke: #cccccc; stroke-linejoin: miter"/>
    </g>
    <g id="patch_86">
     <path d="M 2123.674815 38.776406 
L 2141.674815 38.776406 
L 2141.674815 32.476406 
L 2123.674815 32.476406 
z
" style="fill: #3498db; opacity: 0.85"/>
    </g>
    <g id="text_32">
     <!-- Pairwise BFS -->
     <g transform="translate(2148.874815 38.776406) scale(0.09 -0.09)">
      <defs>
       <path id="DejaVuSans-50" d="M 1259 4147 
L 1259 2394 
L 2053 2394 
Q 2494 2394 2734 2622 
Q 2975 2850 2975 3272 
Q 2975 3691 2734 3919 
Q 2494 4147 2053 4147 
L 1259 4147 
z
M 628 4666 
L 2053 4666 
Q 2838 4666 3239 4311 
Q 3641 3956 3641 3272 
Q 3641 2581 3239 2228 
Q 2838 1875 2053 1875 
L 1259 1875 
L 1259 0 
L 628 0 
L 628 4666 
z
" transform="scale(0.015625)"/>
       <path id="DejaVuSans-42" d="M 1259 2228 
L 1259 519 
L 2272 519 
Q 2781 519 3026 730 
Q 3272 941 3272 1375 
Q 3272 1813 3026 2020 
Q 2781 2228 2272 2228 
L 1259 2228 
z
M 1259 4147 
L 1259 2741 
L 2194 2741 
Q 2656 2741 2882 2914 
Q 3109 3088 3109 3444 
Q 3109 3797 2882 3972 
Q 2656 4147 2194 4147 
L 1259 4147 
z
M 628 4666 
L 2241 4666 
Q 2963 4666 3353 4366 
Q 3744 4066 3744 3513 
Q 3744 3084 3544 2831 
Q 3344 2578 2956 2516 
Q 3422 2416 3680 2098 
Q 3938 1781 3938 1306 
Q 3938 681 3513 340 
Q 3088 0 2303 0 
L 628 0 
L 628 4666 
z
" transform="scale(0.015625)"/>
       <path id="DejaVuSans-46" d="M 628 4666 
L 3309 4666 
L 3309 4134 
L 1259 4134 
L 1259 2759 
L 3109 2759 
L 3109 2228 
L 1259 2228 
L 1259 0 
L 628 0 
L 628 4666 
z
" transform="scale(0.015625)"/>
       <path id="DejaVuSans-53" d="M 3425 4513 
L 3425 3897 
Q 3066 4069 2747 4153 
Q 2428 4238 2131 4238 
Q 1616 4238 1336 4038 
Q 1056 3838 1056 3469 
Q 1056 3159 1242 3001 
Q 1428 2844 1947 2747 
L 2328 2669 
Q 3034 2534 3370 2195 
Q 3706 1856 3706 1288 
Q 3706 609 3251 259 
Q 2797 -91 1919 -91 
Q 1588 -91 1214 -16 
Q 841 59 441 206 
L 441 856 
Q 825 641 1194 531 
Q 1563 422 1919 422 
Q 2459 422 2753 634 
Q 3047 847 3047 1241 
Q 3047 1584 2836 1778 
Q 2625 1972 2144 2069 
L 1759 2144 
Q 1053 2284 737 2584 
Q 422 2884 422 3419 
Q 422 4038 858 4394 
Q 1294 4750 2059 4750 
Q 2388 4750 2728 4690 
Q 3069 4631 3425 4513 
z
" transform="scale(0.015625)"/>
      </defs>
      <use xlink:href="#DejaVuSans-50"/>
      <use xlink:href="#DejaVuSans-61" transform="translate(55.802734 0)"/>
      <use xlink:href="#DejaVuSans-69" transform="translate(117.082031 0)"/>
      <use xlink:href="#DejaVuSans-72" transform="translate(144.865234 0)"/>
      <use xlink:href="#DejaVuSans-77" transform="translate(185.978516 0)"/>
      <use xlink:href="#DejaVuSans-69" transform="translate(267.765625 0)"/>
      <use xlink:href="#DejaVuSans-73" transform="translate(295.548828 0)"/>
      <use xlink:href="#DejaVuSans-65" transform="translate(347.648438 0)"/>
      <use xlink:href="#DejaVuSans-20" transform="translate(409.171875 0)"/>
      <use xlink:href="#DejaVuSans-42" transform="translate(440.958984 0)"/>
      <use xlink:href="#DejaVuSans-46" transform="translate(509.5625 0)"/>
      <use xlink:href="#DejaVuSans-53" transform="translate(565.332031 0)"/>
     </g>
    </g>
    <g id="patch_87">
     <path d="M 2123.674815 51.986719 
L 2141.674815 51.986719 
L 2141.674815 45.686719 
L 2123.674815 45.686719 
z
" style="fill: #e74c3c; opacity: 0.85"/>
    </g>
    <g id="text_33">
     <!-- Floyd-Warshall -->
     <g transform="translate(2148.874815 51.986719) scale(0.09 -0.09)">
      <defs>
       <path id="DejaVuSans-2d" d="M 313 2009 
L 1997 2009 
L 1997 1497 
L 313 1497 
L 313 2009 
z
" transform="scale(0.015625)"/>
       <path id="DejaVuSans-57" d="M 213 4666 
L 850 4666 
L 1831 722 
L 2809 4666 
L 3519 4666 
L 4500 722 
L 5478 4666 
L 6119 4666 
L 4947 0 
L 4153 0 
L 3169 4050 
L 2175 0 
L 1381 0 
L 213 4666 
z
" transform="scale(0.015625)"/>
      </defs>
      <use xlink:href="#DejaVuSans-46"/>
      <use xlink:href="#DejaVuSans-6c" transform="translate(57.519531 0)"/>
      <use xlink:href="#DejaVuSans-6f" transform="translate(85.302734 0)"/>
      <use xlink:href="#DejaVuSans-79" transform="translate(146.484375 0)"/>
      <use xlink:href="#DejaVuSans-64" transform="translate(205.664062 0)"/>
      <use xlink:href="#DejaVuSans-2d" transform="translate(269.140625 0)"/>
      <use xlink:href="#DejaVuSans-57" transform="translate(301.224609 0)"/>
      <use xlink:href="#DejaVuSans-61" transform="translate(393.726562 0)"/>
      <use xlink:href="#DejaVuSans-72" transform="translate(455.005859 0)"/>
      <use xlink:href="#DejaVuSans-73" transform="translate(496.119141 0)"/>
      <use xlink:href="#DejaVuSans-68" transform="translate(548.21875 0)"/>
      <use xlink:href="#DejaVuSans-61" transform="translate(611.597656 0)"/>
      <use xlink:href="#DejaVuSans-6c" transform="translate(672.876953 0)"/>
      <use xlink:href="#DejaVuSans-6c" transform="translate(700.660156 0)"/>
     </g>
    </g>
    <g id="patch_88">
     <path d="M 2123.674815 65.197031 
L 2141.674815 65.197031 
L 2141.674815 58.897031 
L 2123.674815 58.897031 
z
" style="fill: #2ecc71; opacity: 0.85"/>
    </g>
    <g id="text_34">
     <!-- Pairwise Dijkstra -->
     <g transform="translate(2148.874815 65.197031) scale(0.09 -0.09)">
      <defs>
       <path id="DejaVuSans-44" d="M 1259 4147 
L 1259 519 
L 2022 519 
Q 2988 519 3436 956 
Q 3884 1394 3884 2338 
Q 3884 3275 3436 3711 
Q 2988 4147 2022 4147 
L 1259 4147 
z
M 628 4666 
L 1925 4666 
Q 3281 4666 3915 4102 
Q 4550 3538 4550 2338 
Q 4550 1131 3912 565 
Q 3275 0 1925 0 
L 628 0 
L 628 4666 
z
" transform="scale(0.015625)"/>
       <path id="DejaVuSans-6a" d="M 603 3500 
L 1178 3500 
L 1178 -63 
Q 1178 -731 923 -1031 
Q 669 -1331 103 -1331 
L -116 -1331 
L -116 -844 
L 38 -844 
Q 366 -844 484 -692 
Q 603 -541 603 -63 
L 603 3500 
z
M 603 4863 
L 1178 4863 
L 1178 4134 
L 603 4134 
L 603 4863 
z
" transform="scale(0.015625)"/>
      </defs>
      <use xlink:href="#DejaVuSans-50"/>
      <use xlink:href="#DejaVuSans-61" transform="translate(55.802734 0)"/>
      <use xlink:href="#DejaVuSans-69" transform="translate(117.082031 0)"/>
      <use xlink:href="#DejaVuSans-72" transform="translate(144.865234 0)"/>
      <use xlink:href="#DejaVuSans-77" transform="translate(185.978516 0)"/>
      <use xlink:href="#DejaVuSans-69" transform="translate(267.765625 0)"/>
      <use xlink:href="#DejaVuSans-73" transform="translate(295.548828 0)"/>
      <use xlink:href="#DejaVuSans-65" transform="translate(347.648438 0)"/>
      <use xlink:href="#DejaVuSans-20" transform="translate(409.171875 0)"/>
      <use xlink:href="#DejaVuSans-44" transform="translate(440.958984 0)"/>
      <use xlink:href="#DejaVuSans-69" transform="translate(517.960938 0)"/>
      <use xlink:href="#DejaVuSans-6a" transform="translate(545.744141 0)"/>
      <use xlink:href="#DejaVuSans-6b" transform="translate(573.527344 0)"/>
      <use xlink:href="#DejaVuSans-73" transform="translate(631.4375 0)"/>
      <use xlink:href="#DejaVuSans-74" transform="translate(683.537109 0)"/>
      <use xlink:href="#DejaVuSans-72" transform="translate(722.746094 0)"/>
      <use xlink:href="#DejaVuSans-61" transform="translate(763.859375 0)"/>
     </g>
    </g>
   </g>
  </g>
 </g>
 <defs>
  <clipPath id="p6e40a00d58">
   <rect x="46.445938" y="23.837812" width="2184.787315" height="279.558175"/>
  </clipPath>
 </defs>
</svg>
